<svg width="24" height="25" viewBox="0 0 24 25" fill="none" xmlns="http://www.w3.org/2000/svg">
<path d="M5.23906 18.7072L20.0391 3.9072" stroke="#5E6BFE" stroke-width="2" stroke-linecap="round"/>
<path d="M21.8001 2.12131L23.2144 0.707092" stroke="#5E6BFE" stroke-width="2"/>
<path d="M19.0742 0.109039L17.0771 2.10709H5C3.34324 2.10719 2 3.4503 2 5.10709V19.1071C2.00005 20.7638 3.34327 22.107 5 22.1071H19C20.6568 22.1071 21.9999 20.7639 22 19.1071V6.73111L23.9854 4.74478C23.9939 4.86445 24 4.98524 24 5.10709V19.1071C23.9999 21.8685 21.7614 24.1071 19 24.1071H5C2.2387 24.107 5.30035e-05 21.8684 0 19.1071V5.10709C6.44262e-08 2.34573 2.23867 0.107192 5 0.107086H19C19.0247 0.107086 19.0496 0.108682 19.0742 0.109039Z" fill="#5E6BFE"/>
</svg>
