<svg width="24" height="24" viewBox="0 0 24 24" fill="none" xmlns="http://www.w3.org/2000/svg">
<circle cx="12" cy="12" r="10.9091" stroke="black" stroke-width="2.18182"/>
<path d="M12.785 13.9511H10.5021C10.5021 13.4845 10.5339 13.0735 10.5975 12.7182C10.6665 12.3576 10.7831 12.0341 10.9475 11.7477C11.1119 11.4613 11.3346 11.1962 11.6157 10.9523C11.8649 10.7454 12.0797 10.5466 12.26 10.3557C12.4403 10.1648 12.5782 9.9712 12.6737 9.77498C12.7691 9.57877 12.8168 9.3693 12.8168 9.14657C12.8168 8.87082 12.7771 8.64544 12.6975 8.47044C12.6233 8.29544 12.5093 8.16551 12.3555 8.08067C12.207 7.99051 12.0187 7.94544 11.7907 7.94544C11.6051 7.94544 11.4301 7.99051 11.2657 8.08067C11.1066 8.17082 10.9767 8.31135 10.8759 8.50226C10.7752 8.68786 10.7195 8.93445 10.7089 9.24203H8.01229C8.0282 8.45188 8.2032 7.81021 8.53729 7.31703C8.87668 6.81854 9.32744 6.45529 9.88956 6.22726C10.457 5.99392 11.0907 5.87726 11.7907 5.87726C12.5649 5.87726 13.2305 5.99657 13.7873 6.23521C14.3441 6.47385 14.771 6.82915 15.068 7.30112C15.3649 7.76779 15.5134 8.34317 15.5134 9.02726C15.5134 9.48332 15.4259 9.88104 15.2509 10.2204C15.0812 10.5545 14.8505 10.8674 14.5589 11.1591C14.2725 11.4454 13.9517 11.753 13.5964 12.0818C13.2888 12.3523 13.0793 12.628 12.968 12.9091C12.8566 13.1848 12.7956 13.5322 12.785 13.9511ZM10.1759 16.3693C10.1759 15.9875 10.3138 15.6693 10.5896 15.4148C10.8653 15.1549 11.2233 15.025 11.6634 15.025C12.1036 15.025 12.4615 15.1549 12.7373 15.4148C13.013 15.6693 13.1509 15.9875 13.1509 16.3693C13.1509 16.7511 13.013 17.072 12.7373 17.3318C12.4615 17.5863 12.1036 17.7136 11.6634 17.7136C11.2233 17.7136 10.8653 17.5863 10.5896 17.3318C10.3138 17.072 10.1759 16.7511 10.1759 16.3693Z" fill="black"/>
</svg>
