<svg width="24" height="32" viewBox="0 0 24 32" fill="none" xmlns="http://www.w3.org/2000/svg">
<path d="M13.2803 0.0814493C12.4662 0.344092 11.8248 1.01321 11.2204 2.23262C10.8627 2.95176 10.7887 3.15187 10.0672 5.3218C9.4011 7.3354 9.13591 7.96074 8.80905 8.29842C8.40201 8.71115 8.11215 8.6361 7.82845 8.04829C7.6126 7.59804 7.47075 6.92893 7.40291 6.02844C7.34124 5.30929 7.2549 5.11544 6.89103 4.92784C6.47782 4.71522 6.09545 4.79026 5.76859 5.14045C5.36155 5.57819 4.59064 6.61 4.03559 7.45421C0.871791 12.2756 -0.614518 18.0787 0.236563 22.256C1.13698 26.6397 4.33162 30.1853 8.55619 31.486C10.8936 32.2052 13.4653 32.1677 15.7904 31.386C17.6097 30.7732 19.133 29.8101 20.496 28.4219C22.2907 26.5959 23.4131 24.4197 23.8695 21.8808C23.9743 21.3055 23.999 20.899 23.999 19.8797C24.0052 18.7166 23.9867 18.5227 23.8386 17.7973C23.3021 15.2397 22.1488 13.0385 19.4229 9.37401C17.3445 6.59124 17.1287 6.28482 16.5366 5.39059C15.4018 3.65214 14.7913 2.12631 14.7913 1.01321C14.7913 0.231531 14.1129 -0.187447 13.2803 0.0814493ZM13.3358 3.17063C13.8785 4.84654 14.7358 6.22229 17.5974 10.0306C20.4158 13.7889 21.5136 15.7837 22.0193 18.1038C22.1982 18.9167 22.2105 20.6677 22.0501 21.5494C21.3224 25.5078 18.5656 28.6282 14.8406 29.7226C11.5165 30.6981 7.89629 29.8727 5.31221 27.5589C3.67789 26.0956 2.48144 24.0195 2.06207 21.9308C1.56252 19.4482 1.95723 16.3716 3.17834 13.2198C3.7704 11.6878 4.83117 9.63665 5.68225 8.37971L5.86727 8.10457L6.00295 8.47977C6.5395 9.99309 7.71128 10.7185 8.96939 10.3183C10.1597 9.94307 10.8689 8.85497 11.8557 5.85959C12.5402 3.77721 12.9904 2.62033 13.1138 2.62033C13.1385 2.62033 13.2371 2.86421 13.3358 3.17063Z" fill="black"/>
<path d="M11.1526 11.4126C9.16675 11.6627 7.50776 12.4819 6.12629 13.9015C4.89901 15.1584 4.19594 16.4966 3.83207 18.2538C3.68406 18.9917 3.68406 20.6426 3.83207 21.3805C4.19594 23.1377 4.90517 24.4822 6.12629 25.7329C7.36591 27.0023 8.7227 27.7465 10.4742 28.1155C11.1958 28.2655 12.8178 28.2655 13.5702 28.1155C15.2353 27.7778 16.6168 27.0274 17.8502 25.7892C19.096 24.5448 19.8361 23.1565 20.2 21.3805C20.348 20.6426 20.348 18.9917 20.2 18.2538C19.9594 17.097 19.5216 16.0276 18.8925 15.0646C18.504 14.4705 17.3014 13.2449 16.7278 12.8634C15.7349 12.1943 14.6618 11.7378 13.6072 11.5314C13.1076 11.4314 11.5843 11.3563 11.1526 11.4126ZM13.4962 13.4262C14.7173 13.7514 15.7472 14.3392 16.586 15.1834C17.4185 16.0276 17.9798 17.0407 18.3251 18.3164C18.504 18.998 18.504 20.6364 18.3251 21.318C17.9798 22.5937 17.4185 23.6067 16.586 24.451C15.7534 25.2952 14.7543 25.8642 13.4962 26.2144C12.8239 26.3958 11.2081 26.3958 10.5359 26.2144C9.27776 25.8642 8.27866 25.2952 7.44608 24.451C5.06552 22.0309 4.91134 18.1976 7.09455 15.5649C8.03814 14.4268 9.58612 13.545 11.0293 13.3199C11.6336 13.2261 12.9473 13.2824 13.4962 13.4262Z" fill="black"/>
<path d="M11.572 15.2585C11.4301 15.3335 11.2883 15.4773 11.2143 15.6274C11.0971 15.8588 11.0909 15.9901 11.0909 17.9412C11.0909 19.8922 11.0971 20.0236 11.2143 20.2549C11.2944 20.4175 11.424 20.5488 11.5843 20.6301C11.8125 20.7489 11.942 20.7552 13.8662 20.7552C15.7904 20.7552 15.9199 20.7489 16.1481 20.6301C16.4256 20.4863 16.6415 20.1299 16.6415 19.8172C16.6415 19.5045 16.4256 19.1481 16.1481 19.0042C15.9261 18.8917 15.7904 18.8792 14.4212 18.8792H12.9411V17.3784C12.9411 15.9901 12.9288 15.8525 12.8178 15.6274C12.5896 15.1709 12.0345 15.0083 11.572 15.2585Z" fill="black"/>
</svg>
