<svg width="24" height="24" viewBox="0 0 24 24" fill="none" xmlns="http://www.w3.org/2000/svg">
<path fill-rule="evenodd" clip-rule="evenodd" d="M9.06688 0C14.0744 0 18.1338 4.16677 18.1338 9.30674C18.1338 14.4467 14.0744 18.6135 9.06688 18.6135C4.05938 18.6135 0 14.4467 0 9.30674C0 4.16677 4.05938 0 9.06688 0ZM9.06688 2.21589C5.25164 2.21589 2.15878 5.39057 2.15878 9.30674C2.15878 13.2229 5.25164 16.3976 9.06688 16.3976C12.8821 16.3976 15.975 13.2229 15.975 9.30674C15.975 5.39057 12.8821 2.21589 9.06688 2.21589Z" fill="#515151"/>
<path d="M24 22.0905L22.1979 24L13.1635 15.0161C13.8631 14.4864 14.4618 13.8246 14.9247 13.0664L24 22.0905Z" fill="#515151"/>
</svg>
