<svg width="16" height="18" viewBox="0 0 16 18" fill="none" xmlns="http://www.w3.org/2000/svg">
<path d="M0.75 2.55645V1.80645H0V2.55645H0.75ZM14.75 2.55645H15.5V1.80645H14.75V2.55645ZM14.75 16.75V17.5H15.5V16.75H14.75ZM0.75 16.75H0V17.5H0.75V16.75ZM4.3 0.75C4.3 0.335786 3.96421 0 3.55 0C3.13579 0 2.8 0.335786 2.8 0.75H3.55H4.3ZM8.37273 0.75C8.37273 0.335786 8.03694 0 7.62273 0C7.20851 0 6.87273 0.335786 6.87273 0.75H7.62273H8.37273ZM12.4455 0.75C12.4455 0.335786 12.1097 0 11.6955 0C11.2812 0 10.9455 0.335786 10.9455 0.75H11.6955H12.4455ZM5.93027 13.2661L5.27855 13.6373L5.7687 14.498L6.46423 13.7928L5.93027 13.2661ZM0.75 2.55645V3.30645H14.75V2.55645V1.80645H0.75V2.55645ZM14.75 16.75V16H0.75V16.75V17.5H14.75V16.75ZM0.75 16.75H1.5V6.16935H0.75H0V16.75H0.75ZM0.75 6.16935H1.5V2.55645H0.75H0V6.16935H0.75ZM14.75 2.55645H14V6.16935H14.75H15.5V2.55645H14.75ZM14.75 6.16935H14V16.75H14.75H15.5V6.16935H14.75ZM0.75 6.16935V6.91935H14.75V6.16935V5.41935H0.75V6.16935ZM3.55 0.75H2.8V4.3629H3.55H4.3V0.75H3.55ZM7.62273 0.75H6.87273V4.3629H7.62273H8.37273V0.75H7.62273ZM11.6955 0.75H10.9455V4.3629H11.6955H12.4455V0.75H11.6955ZM4.31364 10.4274L3.66191 10.7986L5.27855 13.6373L5.93027 13.2661L6.582 12.895L4.96536 10.0563L4.31364 10.4274ZM5.93027 13.2661L6.46423 13.7928L11.4279 8.76055L10.8939 8.23387L10.36 7.70719L5.39631 12.7395L5.93027 13.2661Z" fill="black"/>
</svg>
