<svg width="17" height="16" viewBox="0 0 17 16" fill="none" xmlns="http://www.w3.org/2000/svg">
<path d="M14.573 10.542L17 6.26825H12.1459L14.573 10.542Z" fill="black"/>
<path d="M7.70683 0C11.9632 0 15.4137 3.50798 15.4137 7.83528C15.4137 8.24907 15.3817 8.65531 15.3209 9.05175L14.2645 7.97774L13.999 8.24736C14.0075 8.11111 14.0124 7.97372 14.0124 7.83528C14.0124 4.29476 11.1893 1.4246 7.70683 1.4246C4.22435 1.4246 1.40124 4.29476 1.40124 7.83528C1.40124 11.3758 4.22435 14.246 7.70683 14.246C9.66936 14.246 11.4224 13.3344 12.5789 11.9051L13.5732 12.916C12.1596 14.6014 10.0562 15.6706 7.70683 15.6706C3.45048 15.6706 0 12.1626 0 7.83528C0 3.50798 3.45048 0 7.70683 0Z" fill="black"/>
<path d="M10.3931 4.31423V5.29552L7.47608 12.2516H5.56717L8.48952 5.73161H4.76286V4.31423H10.3931Z" fill="black"/>
</svg>
