<svg width="24" height="27" viewBox="0 0 24 27" fill="none" xmlns="http://www.w3.org/2000/svg">
<path d="M11.103 0.0199871C10.6306 0.0743198 9.73958 0.249392 9.39872 0.345984C5.90642 1.36623 3.35298 4.16739 2.5995 7.81372C2.47393 8.44157 2.46795 8.61664 2.43805 12.7218L2.40217 16.9779L2.25865 17.2495C2.18091 17.4004 1.69055 18.137 1.17627 18.8855C0.656018 19.6341 0.183602 20.3404 0.117822 20.4552C-0.0496167 20.7751 -0.0376568 21.7169 0.147722 22.067C0.35702 22.4655 0.673958 22.7854 1.04472 22.9665L1.38557 23.1356L4.35163 23.1537L7.31171 23.1718L7.38945 23.4857C7.50307 23.9445 7.88579 24.7052 8.23263 25.17C8.8067 25.9307 9.80536 26.6008 10.804 26.8845C11.3362 27.0355 12.6458 27.0415 13.196 26.8845C14.8345 26.4378 16.2159 25.0614 16.6046 23.4857L16.6883 23.1718L19.6484 23.1537L22.6144 23.1356L22.9553 22.9665C23.326 22.7854 23.643 22.4655 23.8523 22.067C24.0377 21.7169 24.0496 20.7751 23.8822 20.4552C23.8164 20.3404 23.344 19.6341 22.8237 18.8855C22.3094 18.137 21.8191 17.4004 21.7414 17.2495L21.5978 16.9779L21.562 12.6916C21.5201 7.92842 21.5261 7.98276 21.0836 6.63048C19.9892 3.29807 17.2504 0.859125 13.8239 0.164873C13.2438 0.0441341 11.5993 -0.0403843 11.103 0.0199871ZM13.6146 2.09067C15.582 2.54344 17.2624 3.70254 18.3806 5.38686C18.865 6.11733 19.2537 7.02892 19.4869 8.01294C19.6065 8.4959 19.6125 8.75549 19.6543 12.8425C19.6962 17.5031 19.6842 17.3642 20.0311 18.1068C20.1088 18.2818 20.6052 19.0485 21.1314 19.8152L22.0882 21.2037L17.0471 21.2218C14.2724 21.2279 9.72762 21.2279 6.95291 21.2218L1.91181 21.2037L2.8686 19.8152C3.39484 19.0485 3.89118 18.2818 3.96892 18.1068C4.31575 17.3642 4.30379 17.5031 4.34565 12.8425C4.38751 8.75549 4.39349 8.4959 4.51309 8.01294C5.00345 5.97244 6.1217 4.33039 7.78413 3.20147C8.69906 2.57966 10.0266 2.08463 11.1329 1.95786C11.6532 1.89749 13.1063 1.97597 13.6146 2.09067ZM14.6671 23.2684C14.5534 23.5642 14.2066 24.0532 13.9196 24.3249C12.7714 25.3874 11.103 25.3511 9.99073 24.2283C9.69174 23.9264 9.30902 23.3469 9.30902 23.1959C9.30902 23.1778 10.523 23.1658 12.006 23.1658C14.5475 23.1658 14.7029 23.1718 14.6671 23.2684Z" fill="#515151"/>
</svg>
