<svg width="27" height="24" viewBox="0 0 27 24" fill="none" xmlns="http://www.w3.org/2000/svg">
<path d="M22.0908 0C24.802 0 27 2.19796 27 4.90918V18.1641L26.9932 18.416C26.8618 21.0099 24.7174 23.0723 22.0908 23.0723H4.90918L4.65625 23.0664C2.14613 22.9391 0.133966 20.9262 0.00683594 18.416L0 18.1641V4.90918C0 2.28277 2.06255 0.138438 4.65625 0.00683594L4.90918 0H22.0908ZM4.90918 1.96387C3.28245 1.96387 1.96387 3.28245 1.96387 4.90918V18.1641C1.9641 19.7906 3.28259 21.1094 4.90918 21.1094H10.2705V1.96387H4.90918ZM12.2344 21.1094H22.0908C23.7174 21.1094 25.0359 19.7906 25.0361 18.1641V4.90918C25.0361 3.28245 23.7176 1.96387 22.0908 1.96387H12.2344V21.1094Z" fill="#515151"/>
</svg>
