<svg width="27" height="27" viewBox="0 0 27 27" fill="none" xmlns="http://www.w3.org/2000/svg">
<path d="M12.2093 0.0360031C9.64644 0.30015 7.22625 1.27749 5.16009 2.87294C4.57354 3.32199 3.32117 4.57405 2.872 5.16046C2.03709 6.23289 1.23916 7.66458 0.789999 8.87965C0.541638 9.55587 0.224582 10.8185 0.103043 11.6268C-0.0343478 12.5143 -0.0343478 14.4849 0.103043 15.3777C0.224582 16.1754 0.541638 17.4433 0.795283 18.1301C1.24445 19.3504 2.03709 20.7716 2.872 21.844C3.30003 22.3987 4.51013 23.6191 5.04912 24.047C6.14297 24.9081 7.62785 25.7481 8.87494 26.2077C9.56189 26.4613 10.8301 26.7783 11.628 26.8998C12.4101 27.016 14.4393 27.0371 15.1685 26.9315C17.7155 26.5669 19.8609 25.6636 21.8531 24.1315C22.3974 23.7089 23.6181 22.4991 24.0514 21.9549C24.9021 20.8772 25.7582 19.361 26.2126 18.1301C26.4663 17.4433 26.7833 16.1754 26.9049 15.3777C26.9789 14.9022 27 14.432 27 13.5022C27 12.5724 26.9789 12.1022 26.9049 11.6268C26.7833 10.8291 26.4663 9.56115 26.2126 8.87437C25.7529 7.62759 24.9074 6.1378 24.0514 5.04952C23.6392 4.5265 22.4661 3.35897 21.9324 2.93634C20.0406 1.43598 17.8424 0.485054 15.4063 0.109964C14.7405 0.00958824 12.8857 -0.0379581 12.2093 0.0360031ZM12.7113 4.01934V6.31742H10.9147C9.92651 6.31742 9.11802 6.31214 9.11802 6.30157C9.11802 6.2329 9.54604 5.24499 9.77855 4.79065C10.4708 3.40652 11.3374 2.40804 12.315 1.86918C12.463 1.78994 12.6109 1.72126 12.6479 1.72126C12.6955 1.72126 12.7113 2.21786 12.7113 4.01934ZM14.825 1.94315C15.3376 2.22314 16.1672 3.04728 16.6005 3.70237C16.9704 4.25707 17.4302 5.14461 17.6997 5.81026C17.8054 6.07441 17.8899 6.29101 17.8899 6.30157C17.8899 6.31214 17.0814 6.31742 16.0933 6.31742H14.2966V4.01934C14.2966 2.21786 14.3125 1.72126 14.3653 1.72126C14.397 1.72126 14.6084 1.82164 14.825 1.94315ZM9.05989 2.86766C8.60016 3.55973 7.9819 4.80122 7.67012 5.65706L7.43762 6.29101L5.70966 6.30686L3.9817 6.31742L4.08739 6.1695C4.67922 5.34008 5.96859 4.16726 7.07829 3.4435C7.66484 3.06313 9.19728 2.30767 9.3928 2.30239C9.41393 2.30239 9.26597 2.55597 9.05989 2.86766ZM18.0854 2.48201C19.3642 3.03143 20.4316 3.70237 21.4832 4.62688C21.8901 4.98612 22.6775 5.83668 22.9153 6.16422L23.0262 6.31742L21.2983 6.30686L19.5703 6.29101L19.3378 5.65706C19.0313 4.81707 18.4078 3.55973 17.9903 2.93634C17.8054 2.66162 17.631 2.40276 17.6098 2.36578C17.5464 2.26541 17.6363 2.28654 18.0854 2.48201ZM6.89334 8.36192C6.84049 8.62079 6.73481 9.20719 6.66611 9.67209C6.54986 10.4223 6.49702 10.9189 6.39133 12.3241L6.35962 12.7098H3.9817H1.59849L1.63548 12.2502C1.72003 11.1619 2.15863 9.577 2.67649 8.47815L2.95127 7.90231H4.96986H6.98845L6.89334 8.36192ZM12.7113 10.306V12.7098H10.3334H7.95019L7.9819 12.2977C8.10872 10.5913 8.23554 9.62983 8.46805 8.58909C8.54203 8.25626 8.61073 7.9657 8.62658 7.93929C8.63715 7.91816 9.56189 7.90231 10.6822 7.90231H12.7113V10.306ZM18.5082 8.4306C18.7354 9.40266 18.8992 10.6125 19.026 12.2977L19.0577 12.7098H16.6745H14.2966V10.306V7.90231L16.3416 7.91287L18.3866 7.92872L18.5082 8.4306ZM24.3262 8.47287C24.6485 9.16493 24.918 9.92039 25.0977 10.6547C25.2456 11.2675 25.3936 12.1762 25.3936 12.4985V12.7098H23.0209H20.6483L20.6166 12.377C20.606 12.1973 20.5638 11.706 20.532 11.2834C20.4739 10.4909 20.2837 9.1755 20.1146 8.36192L20.0195 7.90231H22.0381H24.0567L24.3262 8.47287ZM6.39133 14.7015C6.51815 16.3761 6.62384 17.2109 6.93561 18.875L6.96732 19.0493H4.94872H2.93013L2.66063 18.484C2.14806 17.3905 1.71475 15.832 1.63548 14.7543L1.59849 14.2947H3.9817H6.35962L6.39133 14.7015ZM12.7113 16.672V19.0493H10.661H8.60544L8.46277 18.3995C8.23026 17.3112 8.114 16.4184 7.9819 14.7015L7.95019 14.2947H10.3334H12.7113V16.672ZM19.026 14.7015C18.8939 16.4184 18.7777 17.3112 18.5452 18.3995L18.4025 19.0493H16.3469H14.2966V16.672V14.2947H16.6745H19.0577L19.026 14.7015ZM25.3936 14.506C25.3936 14.8335 25.2456 15.7422 25.0977 16.3497C24.9127 17.0893 24.6432 17.8501 24.3367 18.5052L24.0778 19.0493H22.0698C20.3577 19.0493 20.0565 19.0388 20.0565 18.9754C20.0565 18.9331 20.0935 18.7218 20.141 18.5105C20.2943 17.7708 20.4739 16.5135 20.532 15.7369C20.5638 15.309 20.606 14.8071 20.6166 14.6222L20.6483 14.2947H23.0209H25.3936V14.506ZM7.66484 21.3315C7.99247 22.2191 8.64243 23.524 9.08631 24.1738C9.27126 24.4485 9.41922 24.6809 9.40865 24.6915C9.37695 24.7232 8.66885 24.4221 8.09287 24.1315C7.43233 23.7987 6.63969 23.2862 6.02671 22.8002C5.51942 22.3987 4.54183 21.4214 4.18779 20.9617L3.93414 20.6342H5.67267H7.41119L7.66484 21.3315ZM12.7113 22.964V25.2885L12.5951 25.2568C12.2305 25.1458 11.7496 24.8077 11.2529 24.3111C10.661 23.7142 10.2066 23.0749 9.77855 22.2138C9.50905 21.6802 9.11802 20.7663 9.11802 20.6765C9.11802 20.6553 9.92651 20.6342 10.9147 20.6342H12.7113V22.964ZM17.8899 20.6817C17.8899 20.7874 17.3985 21.9021 17.1184 22.4251C16.6798 23.2493 16.3416 23.7194 15.7498 24.3111C15.2583 24.8077 14.7722 25.1458 14.4181 25.2568L14.2966 25.2885V22.964V20.6342H16.0933C17.1343 20.6342 17.8899 20.6553 17.8899 20.6817ZM22.8571 20.9089C21.8743 22.1557 20.5003 23.2968 19.1 24.0364C18.4923 24.3534 17.6838 24.7126 17.6204 24.6915C17.5993 24.6809 17.7314 24.4485 17.9216 24.1738C18.3655 23.524 19.0155 22.2191 19.3431 21.3315L19.5967 20.6342H21.3405H23.0791L22.8571 20.9089Z" fill="#515151"/>
</svg>
