<svg width="28" height="28" viewBox="0 0 28 28" fill="none" xmlns="http://www.w3.org/2000/svg">
<path d="M15.5635 0.237549C14.7716 0.134148 13.0795 0.121405 12.2949 0.205322H12.2939C5.92289 0.919631 0.899143 5.9955 0.207031 12.4143V12.4153C0.0532545 13.9012 0.21857 16.041 0.599609 17.2727C0.821469 18.0068 1.36948 18.6414 2.06152 19.0022L2.06348 19.0032C2.23583 19.0904 2.36735 19.1677 2.53418 19.2229C2.70452 19.2793 2.90974 19.3132 3.24805 19.3362C3.5851 19.3591 4.06601 19.3716 4.79395 19.3801L7.82227 19.4016L12.6592 19.4319L12.7861 19.5657L12.79 19.5696L12.791 19.5686L12.9229 19.6965L12.9531 22.7395C12.969 24.2422 12.9786 25.0226 13.001 25.4631C13.0122 25.6833 13.0267 25.8263 13.0488 25.9348C13.0718 26.0475 13.1024 26.1199 13.1377 26.1975C13.2318 26.4038 13.3933 26.6291 13.5713 26.8235C13.748 27.0164 13.9526 27.19 14.1406 27.2903L14.1396 27.2913C14.2602 27.3588 14.3665 27.4011 14.5195 27.4241C14.6646 27.4458 14.8516 27.4504 15.1318 27.4504H15.1328C15.9789 27.4439 17.0512 27.2156 18.1299 26.8469C19.2101 26.4777 20.3077 25.9641 21.2041 25.3772V25.3762C24.3754 23.2926 26.5358 20.0702 27.2344 16.3713C27.5487 14.7097 27.5162 12.628 27.1572 10.9485L27.0332 10.4231C25.6476 5.03457 21.1022 0.966832 15.5635 0.237549ZM12.6055 1.84595C16.1711 1.48082 19.8136 2.79135 22.3193 5.32935L22.5586 5.57837C27.5884 11.0047 26.6595 19.5483 20.6514 23.7463L20.3613 23.9426L20.0781 24.1223C18.6345 25.0058 16.7717 25.6616 15.2451 25.8206H15.2441C15.0371 25.8407 14.9616 25.844 14.915 25.8333C14.8865 25.8267 14.8663 25.8161 14.7812 25.7307L14.6543 25.6018L14.6348 22.6038C14.6253 21.2147 14.6178 20.4378 14.5986 19.9749C14.5795 19.5131 14.5489 19.3454 14.4854 19.1838C14.3971 18.9509 14.2326 18.711 14.0381 18.5032C13.8425 18.2943 13.6075 18.1091 13.373 17.9915L13.3721 17.9905L13.0107 17.8127L12.9805 17.7971H12.9463L3.28516 17.7336L3.04492 17.6047L2.90723 17.5247C2.77107 17.4381 2.63882 17.3337 2.52441 17.2239C2.37021 17.0759 2.25737 16.9266 2.20508 16.8059L2.2041 16.804C2.12454 16.6271 2.03325 16.2395 1.95703 15.7629C1.88179 15.2924 1.82441 14.7528 1.80566 14.2825V14.2815C1.64926 10.8582 3.09542 7.34403 5.59863 5.01978C7.53995 3.22202 9.99498 2.10986 12.6055 1.84595ZM6.69824 11.0051C5.86813 10.8604 4.95487 11.3039 4.49609 12.0579L4.40527 12.2249C4.33808 12.3631 4.29391 12.479 4.26855 12.6262C4.24399 12.7689 4.2373 12.9361 4.2373 13.175C4.2373 13.4227 4.24385 13.5904 4.27148 13.7327C4.30016 13.8802 4.35094 13.9937 4.42676 14.136C4.64404 14.5449 5.01428 14.9099 5.42676 15.1272C5.66386 15.2517 6.01579 15.307 6.35156 15.3079C6.64609 15.3086 6.95416 15.2681 7.19043 15.178L7.28711 15.136C8.58545 14.4946 8.93168 12.8413 7.99512 11.7239V11.7229C7.75658 11.4412 7.28453 11.1598 6.875 11.0452L6.69824 11.0051ZM21.2295 10.968C21.074 10.9716 20.9159 11.0027 20.709 11.0579C18.7557 11.5709 18.4851 14.2281 20.3008 15.1292H20.3018C20.4394 15.1966 20.5545 15.2414 20.7012 15.2668C20.8434 15.2915 21.011 15.2971 21.249 15.2971C21.4865 15.2971 21.6535 15.2916 21.793 15.2668C21.9381 15.241 22.0486 15.1952 22.1758 15.1262V15.1252C22.5875 14.9078 22.9579 14.5443 23.1748 14.136C23.2506 13.9937 23.3014 13.8801 23.3301 13.7327C23.3577 13.5904 23.3633 13.4227 23.3633 13.175C23.3633 12.9361 23.3576 12.7689 23.333 12.6262C23.3077 12.479 23.2635 12.3631 23.1963 12.2249L23.0742 12.009C22.7624 11.5237 22.2634 11.1632 21.7148 11.0315H21.7139C21.5317 10.989 21.3858 10.9644 21.2295 10.968ZM6.38477 12.6565C6.48099 12.6565 6.53444 12.6659 6.57617 12.6829C6.61763 12.6998 6.66186 12.7302 6.72852 12.7971C6.79487 12.8637 6.82482 12.9078 6.8418 12.9495C6.8589 12.9916 6.86814 13.0459 6.86816 13.1428C6.86816 13.3385 6.79797 13.4844 6.69629 13.5725C6.59541 13.6598 6.44853 13.7039 6.2666 13.6702L6.19043 13.6497C6.01983 13.587 5.90354 13.4336 5.86523 13.2551C5.8218 13.0525 5.88448 12.8453 6.05762 12.7297C6.07885 12.7167 6.12721 12.6979 6.19434 12.6819C6.25937 12.6664 6.32919 12.6565 6.38477 12.6565ZM20.873 12.7971C21.2207 12.4483 21.7866 12.7396 21.752 13.1868L21.7373 13.2786L21.7363 13.2805C21.6632 13.5882 21.3199 13.7641 21.0166 13.6409C20.8725 13.5789 20.7716 13.4356 20.7412 13.2639C20.711 13.0926 20.755 12.9156 20.873 12.7971ZM17.71 5.5813H17.709C16.9307 5.62927 16.283 6.06324 15.9053 6.79419L15.9043 6.79517C15.829 6.94295 15.7795 7.05933 15.751 7.20337C15.7233 7.34326 15.7168 7.50265 15.7168 7.73462C15.7168 7.96684 15.7233 8.12686 15.751 8.26685C15.7652 8.33876 15.7851 8.40357 15.8105 8.46899L15.9043 8.67505C16.134 9.12269 16.4738 9.46388 16.9199 9.69458H16.9209C17.0679 9.77 17.1836 9.82023 17.3271 9.84888C17.4668 9.87673 17.6261 9.88306 17.8574 9.88306C18.0887 9.88306 18.2481 9.87673 18.3877 9.84888C18.5312 9.82022 18.6469 9.77001 18.7939 9.69458H18.7949C19.241 9.46389 19.5799 9.12262 19.8096 8.67505H19.8105C19.8858 8.52729 19.9353 8.41085 19.9639 8.26685C19.9916 8.12686 19.998 7.96684 19.998 7.73462C19.998 7.50267 19.9915 7.34325 19.9639 7.20337C19.9354 7.05935 19.8858 6.94293 19.8105 6.79517L19.8096 6.79419C19.5067 6.21315 18.9793 5.76862 18.3701 5.6106V5.61157C18.2962 5.59075 18.1865 5.58128 18.0781 5.57739C17.9623 5.57324 17.8312 5.57473 17.71 5.5813ZM9.5957 5.5813H9.59473C8.86493 5.62637 8.2504 6.0109 7.86523 6.66138L7.79102 6.79419V6.79517C7.71576 6.94295 7.66523 7.05933 7.63672 7.20337C7.60905 7.34323 7.60352 7.50272 7.60352 7.73462C7.60352 7.96683 7.60901 8.12686 7.63672 8.26685C7.65095 8.33873 7.6709 8.40361 7.69629 8.46899L7.79102 8.67505C7.99211 9.06687 8.27734 9.37686 8.64453 9.60278L8.80664 9.69458C8.95389 9.77012 9.07017 9.82021 9.21387 9.84888C9.35344 9.87669 9.51292 9.88306 9.74414 9.88306C9.97507 9.88305 10.134 9.87666 10.2734 9.84888C10.3452 9.83456 10.4103 9.81484 10.4756 9.78931L10.6807 9.69458C11.0711 9.4927 11.3805 9.20646 11.6055 8.83813L11.6963 8.67505C11.7715 8.52726 11.8221 8.41088 11.8506 8.26685C11.8783 8.12686 11.8838 7.96684 11.8838 7.73462C11.8838 7.50271 11.8783 7.34323 11.8506 7.20337C11.8221 7.05933 11.7715 6.94295 11.6963 6.79517V6.79419C11.3934 6.21315 10.866 5.76862 10.2568 5.6106V5.61157C10.183 5.59069 10.0733 5.58129 9.96484 5.57739C9.84895 5.57324 9.71698 5.57472 9.5957 5.5813ZM17.8662 7.19165C17.9084 7.19168 17.9604 7.20678 18.0879 7.27075L18.0898 7.27173C18.177 7.3145 18.2621 7.40422 18.3193 7.51685C18.3769 7.63042 18.3956 7.7459 18.377 7.82935L18.376 7.83032C18.3584 7.91207 18.3011 8.01036 18.2158 8.09595C18.1519 8.16007 18.0812 8.20807 18.0156 8.2356L17.9521 8.2561V8.25708C17.8656 8.27615 17.7513 8.25667 17.6406 8.19849C17.5306 8.14063 17.4412 8.05298 17.3975 7.95825L17.3955 7.95435C17.3697 7.90257 17.3472 7.84773 17.3311 7.802C17.323 7.77908 17.3171 7.75969 17.3135 7.74536C17.3123 7.74055 17.311 7.73708 17.3105 7.73462C17.3107 7.68407 17.3441 7.5877 17.416 7.48267C17.4868 7.37939 17.5707 7.30237 17.6338 7.27368L17.6377 7.27173C17.7691 7.20741 17.8233 7.19165 17.8662 7.19165ZM9.75195 7.19165C9.79418 7.19165 9.84685 7.20663 9.97461 7.27075L9.97559 7.27173C10.0629 7.31444 10.1488 7.40398 10.2061 7.51685C10.2492 7.60191 10.2695 7.6882 10.2695 7.76099L10.2627 7.82935V7.83032C10.2451 7.91206 10.1878 8.01037 10.1025 8.09595C10.0173 8.18146 9.91989 8.23843 9.83887 8.2561L9.83789 8.25708C9.75134 8.27602 9.63696 8.25664 9.52637 8.19849C9.41648 8.14063 9.32787 8.05288 9.28418 7.95825L9.28223 7.95435C9.25641 7.90252 9.23293 7.84778 9.2168 7.802C9.20875 7.77916 9.20283 7.75966 9.19922 7.74536C9.19504 7.72874 9.19625 7.72698 9.19629 7.73462C9.19647 7.68405 9.23075 7.58776 9.30273 7.48267C9.37356 7.37926 9.45743 7.30227 9.52051 7.27368L9.52441 7.27173C9.65532 7.20763 9.70916 7.19176 9.75195 7.19165Z" fill="#515151" stroke="#515151" stroke-width="0.3"/>
</svg>
