<svg width="29" height="24" viewBox="0 0 29 24" fill="none" xmlns="http://www.w3.org/2000/svg">
<path fill-rule="evenodd" clip-rule="evenodd" d="M2.85611 10.4709C10.1039 7.36615 14.9368 5.31934 17.355 4.33042C24.2594 1.50685 25.6941 1.01637 26.6292 1.00017C26.8349 0.996611 27.2947 1.04673 27.5926 1.28437C27.8441 1.48504 27.9133 1.75611 27.9464 1.94636C27.9795 2.13661 28.0208 2.57001 27.988 2.90866C27.6138 6.7739 25.9949 16.1538 25.1713 20.483C24.8228 22.3148 24.1365 22.929 23.4722 22.9891C22.0284 23.1197 20.9321 22.051 19.5337 21.1497C17.3455 19.7394 16.1094 18.8615 13.9854 17.4853C11.5307 15.8949 13.122 15.0208 14.5209 13.5922C14.887 13.2184 21.2483 7.52943 21.3714 7.01335C21.3868 6.94881 21.4011 6.70822 21.2557 6.58118C21.1103 6.45414 20.8958 6.49758 20.741 6.53213C20.5215 6.5811 17.0259 8.85279 10.2541 13.3472C9.26184 14.0171 8.36312 14.3435 7.55789 14.3264C6.6702 14.3075 4.96262 13.8329 3.69322 13.4272C2.13624 12.9296 0.898786 12.6665 1.00654 11.8214C1.06267 11.3812 1.67919 10.931 2.85611 10.4709Z" stroke="#515151" stroke-width="2"/>
</svg>
