<svg width="19" height="3" viewBox="0 0 19 3" fill="none" xmlns="http://www.w3.org/2000/svg">
<path d="M3 1.5C3 2.32843 2.32843 3 1.5 3C0.671573 3 0 2.32843 0 1.5C0 0.671573 0.671573 0 1.5 0C2.32843 0 3 0.671573 3 1.5Z" fill="black"/>
<path d="M11 1.5C11 2.32843 10.3284 3 9.5 3C8.67157 3 8 2.32843 8 1.5C8 0.671573 8.67157 0 9.5 0C10.3284 0 11 0.671573 11 1.5Z" fill="black"/>
<path d="M19 1.5C19 2.32843 18.3284 3 17.5 3C16.6716 3 16 2.32843 16 1.5C16 0.671573 16.6716 0 17.5 0C18.3284 0 19 0.671573 19 1.5Z" fill="black"/>
</svg>
