<svg width="27" height="30" viewBox="0 0 27 30" fill="none" xmlns="http://www.w3.org/2000/svg">
<path d="M1.09082 4.13927V3.04836H-8.88109e-05V4.13927H1.09082ZM25.0908 4.13927H26.1817V3.04836H25.0908V4.13927ZM25.0908 28.0909V29.1818H26.1817V28.0909H25.0908ZM1.09082 28.0909H-8.88109e-05V29.1818H1.09082V28.0909ZM6.98173 1.09088C6.98173 0.488389 6.49331 -2.77758e-05 5.89082 -2.77758e-05C5.28833 -2.77758e-05 4.79991 0.488389 4.79991 1.09088H5.89082H6.98173ZM13.9635 1.09088C13.9635 0.488389 13.4751 -2.77758e-05 12.8726 -2.77758e-05C12.2701 -2.77758e-05 11.7817 0.488389 11.7817 1.09088H12.8726H13.9635ZM20.9454 1.09088C20.9454 0.488389 20.4569 -2.77758e-05 19.8545 -2.77758e-05C19.252 -2.77758e-05 18.7635 0.488389 18.7635 1.09088H19.8545H20.9454ZM9.97129 22.2118L9.02702 22.7581L9.73757 23.9863L10.7419 22.984L9.97129 22.2118ZM1.09082 4.13927V5.23018H25.0908V4.13927V3.04836H1.09082V4.13927ZM25.0908 28.0909V27H1.09082V28.0909V29.1818H25.0908V28.0909ZM1.09082 28.0909H2.18173V10.236H1.09082H-8.88109e-05V28.0909H1.09082ZM1.09082 10.236H2.18173V4.13927H1.09082H-8.88109e-05V10.236H1.09082ZM25.0908 4.13927H23.9999V10.236H25.0908H26.1817V4.13927H25.0908ZM25.0908 10.236H23.9999V28.0909H25.0908H26.1817V10.236H25.0908ZM1.09082 10.236V11.327H25.0908V10.236V9.14513H1.09082V10.236ZM5.89082 1.09088H4.79991V7.18766H5.89082H6.98173V1.09088H5.89082ZM12.8726 1.09088H11.7817V7.18766H12.8726H13.9635V1.09088H12.8726ZM19.8545 1.09088H18.7635V7.18766H19.8545H20.9454V1.09088H19.8545ZM7.19991 17.4215L6.25564 17.9678L9.02702 22.7581L9.97129 22.2118L10.9156 21.6656L8.14418 16.8752L7.19991 17.4215ZM9.97129 22.2118L10.7419 22.984L19.251 14.4921L18.4804 13.7199L17.7098 12.9477L9.20068 21.4397L9.97129 22.2118Z" fill="#515151"/>
</svg>
