<svg width="21" height="24" viewBox="0 0 21 24" fill="none" xmlns="http://www.w3.org/2000/svg">
<path d="M10.5 0L21 6V18L10.5 24L0 18V6L10.5 0Z" fill="#939393"/>
<path d="M3.5333 18.4397C3.76401 18.0267 3.9974 17.5164 4.20643 17.085L5.2821 14.871L8.72155 7.82003L9.92424 5.34181C10.1335 4.9109 10.3483 4.43929 10.5711 4.01887C10.7947 4.01983 11.0205 4.01657 11.2442 4.01491C11.1811 4.15573 11.0959 4.31518 11.0277 4.46073L10.1623 6.27658L7.46661 11.8362L5.23838 16.4157L4.56444 17.795C4.46652 17.9973 4.35986 18.2418 4.25949 18.4365L4.23268 18.4446L3.5333 18.4397Z" fill="white"/>
<path d="M13.448 6.26583C13.3819 6.07188 13.1296 5.58146 13.028 5.36901C12.8268 4.94819 12.6066 4.41516 12.3848 4.01676C12.6104 4.01515 12.8408 4.0186 13.0669 4.01959C13.5763 5.05191 14.0497 6.11264 14.5755 7.13387C14.3577 7.05516 14.1891 7.00085 13.9537 6.95066C11.6162 6.45185 9.90272 8.85137 11.2306 10.8266C11.5554 11.3098 12.2813 11.8259 12.8615 11.9264C12.6289 11.9681 12.425 12.0079 12.1972 12.0787C11.5219 12.2886 10.9032 12.7381 10.4614 13.2805C10.1448 13.6692 10.0038 13.9949 9.7926 14.434L9.36955 15.3182L8.6291 16.8347C8.37562 17.3605 8.10972 17.935 7.83472 18.4466C7.60487 18.432 7.36101 18.4387 7.13032 18.4425C7.313 18.0485 7.54485 17.6105 7.74051 17.2165L8.62621 15.3985L9.13873 14.3259C9.35218 13.8711 9.52919 13.4391 9.84075 13.0417C10.2933 12.4645 10.6687 12.1591 11.288 11.7901C11.2709 11.744 11.2612 11.7475 11.2177 11.7101C10.7014 11.2769 10.3236 10.662 10.1972 10.002C9.99899 10.3834 9.81707 10.7977 9.6308 11.1856L8.63779 13.2368L6.09519 18.4428C5.85681 18.4404 5.62709 18.4407 5.38879 18.4451C5.44539 18.3035 5.55451 18.0982 5.62593 17.9531L6.09932 16.9924L7.62891 13.8498L9.55654 9.8548L10.1842 8.55027C10.2696 8.37262 10.3533 8.19345 10.4382 8.01623C10.8707 7.11276 11.7755 6.46732 12.7714 6.31961C13.0046 6.28502 13.2112 6.27366 13.448 6.26583Z" fill="white"/>
<path d="M7.13032 18.4425C7.313 18.0485 7.54485 17.6105 7.74051 17.2165L8.62621 15.3985L9.13873 14.3259C9.35218 13.8711 9.52919 13.4391 9.84075 13.0417C10.2933 12.4645 10.6687 12.1591 11.288 11.7901C11.2709 11.744 11.2612 11.7475 11.2177 11.7101C10.7014 11.2769 10.3236 10.662 10.1972 10.002C9.99899 10.3834 9.81707 10.7977 9.6308 11.1856L8.63779 13.2368L6.09519 18.4428L7.13032 18.4425Z" fill="white"/>
<path d="M11.2442 4.01491C11.1811 4.15573 11.0959 4.31518 11.0277 4.46073L10.1623 6.27658L7.46661 11.8362L5.23838 16.4157L4.56444 17.795C4.46652 17.9973 4.35986 18.2418 4.25949 18.4365L4.23268 18.4446L5.38879 18.4451C5.44539 18.3035 5.55451 18.0982 5.62593 17.9531L6.09932 16.9924L7.62891 13.8498L9.55654 9.8548L10.1842 8.55027C10.2696 8.37262 10.3533 8.19345 10.4382 8.01623C10.8707 7.11276 11.7755 6.46732 12.7714 6.31961C13.0046 6.28502 13.2112 6.27366 13.448 6.26583C13.3819 6.07188 13.1296 5.58146 13.028 5.36901C12.8268 4.94819 12.6066 4.41516 12.3848 4.01676L11.2442 4.01491Z" fill="white"/>
<path d="M13.3182 9.41479H11.4154C12.0497 9.41853 13.3182 9.80042 13.3182 11.2981V9.41479Z" fill="white"/>
<path d="M13.3182 9.41479V11.2981C13.322 10.6703 13.7079 9.41479 15.221 9.41479H13.3182Z" fill="white"/>
<path d="M13.3182 9.41479H15.221C14.5868 9.41105 13.3182 9.02916 13.3182 7.53149V9.41479Z" fill="white"/>
<path d="M13.3182 9.41479V7.53149C13.3145 8.15926 12.9286 9.41479 11.4154 9.41479H13.3182Z" fill="white"/>
<path d="M15.2025 15.2608H13.3314C13.9551 15.2645 15.2025 15.64 15.2025 17.1127V15.2608Z" fill="white"/>
<path d="M15.2025 15.2608V17.1127C15.2063 16.4954 15.5857 15.2608 17.0737 15.2608H15.2025Z" fill="white"/>
<path d="M15.2025 15.2608H17.0737C16.4499 15.2571 15.2025 14.8816 15.2025 13.4089L15.2025 15.2608Z" fill="white"/>
<path d="M15.2025 15.2608L15.2025 13.4089C15.1988 14.0262 14.8194 15.2608 13.3314 15.2608H15.2025Z" fill="white"/>
<path d="M16.178 12.2875H14.9632C15.3682 12.2899 16.178 12.5337 16.178 13.4899V12.2875Z" fill="white"/>
<path d="M16.178 12.2875V13.4899C16.1805 13.0891 16.4268 12.2875 17.3929 12.2875H16.178Z" fill="white"/>
<path d="M16.178 12.2875H17.3929C16.9879 12.2851 16.178 12.0413 16.178 11.0851L16.178 12.2875Z" fill="white"/>
<path d="M16.178 12.2875L16.178 11.0851C16.1756 11.4859 15.9293 12.2875 14.9632 12.2875H16.178Z" fill="white"/>
<path d="M12.928 12.7688C12.6635 13.2769 12.5137 13.8532 12.5136 14.4641C12.5136 16.5108 14.1903 18.17 16.2581 18.1702C16.6793 18.1702 17.084 18.0998 17.4618 17.9729C16.8402 19.1672 15.5836 19.9846 14.1328 19.9846C12.0648 19.9846 10.3883 18.3254 10.3883 16.2786C10.3884 14.649 11.4511 13.2652 12.928 12.7688Z" fill="white"/>
</svg>
