<svg width="21" height="24" viewBox="0 0 21 24" fill="none" xmlns="http://www.w3.org/2000/svg">
<path d="M10.5 0L21 6V18L10.5 24L0 18V6L10.5 0Z" fill="#151515"/>
<path d="M3.5332 18.4399C3.76392 18.0269 3.9973 17.5166 4.20633 17.0852L5.282 14.8713L8.72146 7.82026L9.92414 5.34203C10.1334 4.91113 10.3482 4.43952 10.571 4.01909C10.7946 4.02005 11.0204 4.01679 11.2441 4.01514C11.181 4.15596 11.0958 4.3154 11.0276 4.46095L10.1622 6.2768L7.46652 11.8364L5.23828 16.4159L4.56434 17.7953C4.46643 17.9975 4.35977 18.242 4.2594 18.4367L4.23258 18.4448L3.5332 18.4399Z" fill="white"/>
<path d="M13.4479 6.26606C13.3818 6.07211 13.1295 5.58169 13.0279 5.36924C12.8267 4.94841 12.6065 4.41539 12.3847 4.01698C12.6103 4.01538 12.8407 4.01883 13.0668 4.01981C13.5762 5.05214 14.0496 6.11287 14.5754 7.1341C14.3576 7.05539 14.189 7.00108 13.9536 6.95089C11.6161 6.45207 9.90262 8.85159 11.2305 10.8268C11.5553 11.31 12.2812 11.8261 12.8614 11.9266C12.6288 11.9683 12.4249 12.0082 12.1971 12.079C11.5218 12.2888 10.9031 12.7383 10.4613 13.2807C10.1447 13.6694 10.0037 13.9952 9.79251 14.4343L9.36945 15.3184L8.629 16.835C8.37552 17.3608 8.10962 17.9352 7.83462 18.4468C7.60477 18.4323 7.36091 18.4389 7.13022 18.4427C7.3129 18.0487 7.54475 17.6107 7.74041 17.2167L8.62611 15.3988L9.13863 14.3261C9.35209 13.8714 9.52909 13.4394 9.84065 13.042C10.2932 12.4647 10.6686 12.1593 11.2879 11.7904C11.2708 11.7442 11.2611 11.7478 11.2176 11.7103C10.7013 11.2771 10.3235 10.6622 10.1971 10.0023C9.99889 10.3836 9.81697 10.7979 9.6307 11.1859L8.63769 13.237L6.09509 18.443C5.85671 18.4406 5.62699 18.4409 5.38869 18.4453C5.44529 18.3037 5.55441 18.0985 5.62583 17.9534L6.09922 16.9926L7.62881 13.85L9.55645 9.85502L10.1841 8.5505C10.2695 8.37285 10.3533 8.19368 10.4381 8.01646C10.8706 7.11298 11.7754 6.46755 12.7713 6.31983C13.0045 6.28525 13.2111 6.27389 13.4479 6.26606Z" fill="white"/>
<path d="M7.13022 18.4427C7.3129 18.0487 7.54475 17.6107 7.74041 17.2167L8.62611 15.3988L9.13863 14.3261C9.35209 13.8714 9.52909 13.4394 9.84065 13.042C10.2932 12.4647 10.6686 12.1593 11.2879 11.7904C11.2708 11.7442 11.2611 11.7478 11.2176 11.7103C10.7013 11.2771 10.3235 10.6622 10.1971 10.0023C9.99889 10.3836 9.81697 10.7979 9.6307 11.1859L8.63769 13.237L6.09509 18.443L7.13022 18.4427Z" fill="white"/>
<path d="M11.2441 4.01514C11.181 4.15596 11.0958 4.3154 11.0276 4.46095L10.1622 6.2768L7.46652 11.8364L5.23828 16.4159L4.56434 17.7953C4.46643 17.9975 4.35977 18.242 4.2594 18.4367L4.23258 18.4448L5.38869 18.4453C5.44529 18.3037 5.55441 18.0985 5.62583 17.9534L6.09922 16.9926L7.62881 13.85L9.55645 9.85502L10.1841 8.5505C10.2695 8.37285 10.3533 8.19368 10.4381 8.01646C10.8706 7.11298 11.7754 6.46755 12.7713 6.31983C13.0045 6.28525 13.2111 6.27389 13.4479 6.26606C13.3818 6.07211 13.1295 5.58169 13.0279 5.36924C12.8267 4.94841 12.6065 4.41539 12.3847 4.01698L11.2441 4.01514Z" fill="white"/>
<path d="M13.4614 7.53149C13.4614 8.23277 13.7548 8.66011 14.1147 8.91724C14.482 9.17954 14.9275 9.26999 15.2222 9.27173L15.2212 9.35962V9.55786C14.5109 9.55786 14.0784 9.84937 13.8188 10.2053C13.5542 10.5683 13.4632 11.0083 13.4614 11.2991L13.1753 11.2981C13.1753 10.5968 12.8819 10.1695 12.522 9.91235C12.1547 9.65005 11.7093 9.5596 11.4146 9.55786L11.4155 9.41431V9.27173C12.1258 9.27173 12.5583 8.98022 12.8179 8.62427C13.0825 8.26125 13.1735 7.82131 13.1753 7.53052L13.4614 7.53149Z" fill="#FFC04B" stroke="#FFC04B" stroke-width="0.285857"/>
<path d="M15.3433 13.4089C15.3433 14.0984 15.6319 14.5184 15.9858 14.7712C16.347 15.0292 16.7849 15.1182 17.0747 15.1199L17.0737 15.2068V15.4011C16.3753 15.4011 15.95 15.6878 15.6948 16.0378C15.4345 16.3949 15.345 16.828 15.3433 17.114L15.062 17.113C15.062 16.4236 14.7733 16.0036 14.4194 15.7507C14.0583 15.4928 13.6204 15.4028 13.3306 15.4011L13.3315 15.1199C14.03 15.1199 14.4552 14.8332 14.7104 14.4832C14.9705 14.1262 15.0603 13.6939 15.062 13.408L15.3433 13.4089Z" fill="#FFC04B" stroke="#FFC04B" stroke-width="0.281095"/>
<path d="M16.269 11.0852C16.269 11.533 16.4572 11.8058 16.687 11.97C16.9214 12.1373 17.206 12.1954 17.394 12.1965L17.3931 12.2522V12.3792C16.9396 12.3792 16.6633 12.565 16.4976 12.7922C16.3287 13.024 16.2702 13.3048 16.269 13.4905L16.0874 13.4895L16.0786 13.3303C16.0396 12.9758 15.8705 12.7494 15.6694 12.6057C15.435 12.4382 15.1506 12.3803 14.9624 12.3792L14.9634 12.2874V12.1965C15.4169 12.1965 15.6932 12.0097 15.8589 11.7825C16.0276 11.5508 16.0863 11.2698 16.0874 11.0842L16.269 11.0852Z" fill="#FFC04B" stroke="#FFC04B" stroke-width="0.182502"/>
<path d="M12.9282 12.7695C12.6638 13.2775 12.5142 13.854 12.5142 14.4648C12.5144 16.5113 14.1906 18.1707 16.2583 18.1709C16.6797 18.1709 17.0844 18.0997 17.4624 17.9727C16.8409 19.1674 15.5835 19.9854 14.1323 19.9854C12.0645 19.9852 10.3883 18.3259 10.3882 16.2793C10.3882 14.6496 11.4512 13.2659 12.9282 12.7695Z" fill="#3D3D3D"/>
</svg>
