<svg width="24" height="27" viewBox="0 0 24 27" fill="none" xmlns="http://www.w3.org/2000/svg">
<g clip-path="url(#clip0_187_25)">
<mask id="mask0_187_25" style="mask-type:luminance" maskUnits="userSpaceOnUse" x="0" y="0" width="24" height="27">
<path d="M24 0H0V27H24V0Z" fill="white"/>
</mask>
<g mask="url(#mask0_187_25)">
<path d="M7.80103 0.0192261V5.69496" stroke="black" stroke-width="1.99946"/>
<path d="M16.199 0.0192261V5.69496" stroke="black" stroke-width="1.99946"/>
<path d="M1.00659 7.71594H22.9933V22.7199C22.9933 24.5123 21.561 25.9654 19.7942 25.9654H4.20573C2.43889 25.9654 1.00659 24.5123 1.00659 22.7199V7.71594Z" stroke="black" stroke-width="1.99946"/>
<path d="M22.997 3.66785H1.00293V7.72192H22.997V3.66785Z" stroke="black" stroke-width="1.99946"/>
<path d="M8 9.5H5V12.5H8V9.5Z" fill="black"/>
<path d="M13.3989 9.5H10.3989V12.5H13.3989V9.5Z" fill="black"/>
<path d="M18.7979 9.5H15.7979V12.5H18.7979V9.5Z" fill="black"/>
<path d="M8 14.9595H5V17.9595H8V14.9595Z" fill="black"/>
<path d="M13.3989 14.9595H10.3989V17.9595H13.3989V14.9595Z" fill="black"/>
<path d="M18.7979 14.9595H15.7979V17.9595H18.7979V14.9595Z" fill="black"/>
<path d="M8 20.4189H5V23.4189H8V20.4189Z" fill="black"/>
<path d="M13.3989 20.4189H10.3989V23.4189H13.3989V20.4189Z" fill="black"/>
<path d="M18.7979 20.4189H15.7979V23.4189H18.7979V20.4189Z" fill="black"/>
</g>
</g>
<defs>
<clipPath id="clip0_187_25">
<rect width="24" height="27" fill="white"/>
</clipPath>
</defs>
</svg>
