<svg width="24" height="24" viewBox="0 0 24 24" fill="none" xmlns="http://www.w3.org/2000/svg">
<path d="M19.5131 14.1531C21.0479 13.2786 20.6459 9.75586 18.6152 6.28481C16.5844 2.81376 13.694 0.708828 12.1591 1.58331M19.5131 14.1531C17.9782 15.0276 15.0878 12.9226 13.057 9.45158C11.0263 5.98053 10.6243 2.45778 12.1591 1.58331M19.5131 14.1531L10.9764 16.3867M12.1591 1.58331L1.88206 11.7279M10.9764 16.3867L8.97895 16.9093L5.45316 17.8318M8.97895 16.9093L10.5141 22.5631L12.5101 22.0353L10.9764 16.3867" stroke="#5E6BFE" stroke-width="2.18182"/>
<ellipse cx="1.56139" cy="2.91259" rx="1.56139" ry="2.91259" transform="matrix(0.86887 -0.49504 0.504976 0.863133 11.1377 7.07861)" fill="#5E6BFE"/>
<path d="M5.76983 17.749C4.8894 18.2506 3.05947 17.3738 2.07334 15.6882C1.08721 14.0027 1.25342 11.9811 2.13385 11.4795" stroke="#5E6BFE" stroke-width="2.18182"/>
</svg>
