<svg width="20" height="17" viewBox="0 0 20 17" fill="none" xmlns="http://www.w3.org/2000/svg">
<path fill-rule="evenodd" clip-rule="evenodd" d="M16.9014 0L17.0605 0.00390625C18.698 0.0867526 19.9998 1.44066 20 3.09863V13.9014L19.9961 14.0605C19.9131 15.6979 18.5594 17 16.9014 17H3.09863C1.44077 16.9998 0.0869141 15.6978 0.00390625 14.0605L0 13.9014V3.09863C0.000175535 1.38738 1.38738 0.000175883 3.09863 0H16.9014ZM3.09863 2.125C2.56099 2.12518 2.12518 2.56099 2.125 3.09863V13.9014C2.12518 14.439 2.56099 14.8748 3.09863 14.875H6.9375V2.125H3.09863ZM9.0625 14.875H16.9014C17.4392 14.875 17.8748 14.4391 17.875 13.9014V3.09863C17.8748 2.56089 17.4392 2.125 16.9014 2.125H9.0625V14.875Z" fill="#939393"/>
</svg>
