<svg width="31" height="29" viewBox="0 0 31 29" fill="none" xmlns="http://www.w3.org/2000/svg">
<g clip-path="url(#clip0_228_89)">
<mask id="mask0_228_89" style="mask-type:luminance" maskUnits="userSpaceOnUse" x="0" y="0" width="31" height="29">
<path d="M31 0H0V29H31V0Z" fill="white"/>
</mask>
<g mask="url(#mask0_228_89)">
<path d="M20.1303 0.0550094C20.3555 0.0376283 20.5814 0.0329051 20.8072 0.0408399C21.6589 0.0793806 22.4857 0.338681 23.2054 0.79314C23.7903 1.16239 24.2894 1.69837 24.7793 2.18505L26.1971 3.59395L28.3668 5.74817C28.7915 6.16919 29.2316 6.59578 29.6438 7.02748C30.5562 7.98316 31.0272 9.22864 30.9727 10.5489C30.9351 11.4747 30.6273 12.3695 30.0869 13.1246C29.7032 13.6628 28.7624 14.5396 28.2527 15.0457L25.077 18.199L19.3995 23.8336L17.3579 25.8622C16.9854 26.2329 16.5745 26.6644 16.1903 27.0161C16.5173 27.0369 16.9176 27.0268 17.2503 27.0268L19.0172 27.0266L24.5488 27.026L26.2697 27.0254C26.7856 27.0245 27.4674 26.9333 27.8584 27.3053C28.0437 27.481 28.1507 27.7228 28.1561 27.9771C28.1618 28.259 28.0431 28.5033 27.8406 28.6974C27.702 28.8287 27.5283 28.9177 27.3402 28.9536C27.106 28.9989 26.1628 28.9832 25.8717 28.9832L22.8102 28.9818L11.8968 28.9817L8.49969 28.9815C7.97192 28.982 7.44569 28.9969 6.9183 28.9837C6.40519 28.9708 6.12619 28.5735 5.79441 28.2418L4.76628 27.2178L2.48749 24.9543C1.9662 24.4376 1.23285 23.7612 0.834507 23.1756C0.427342 22.5776 0.163129 21.8951 0.0619983 21.1802C-0.118905 19.9071 0.217635 18.6147 0.9974 17.5884C1.31872 17.1605 1.76584 16.7486 2.15239 16.3662L3.72198 14.8084L9.39812 9.16819L14.8964 3.70646L16.5256 2.08747C17.7528 0.868804 18.3229 0.318843 20.1303 0.0550094ZM8.45908 12.8733C9.21478 13.5545 10.164 14.5519 10.9001 15.2832L15.5494 19.9023L16.9091 21.2527C17.1107 21.4529 17.3917 21.7505 17.5924 21.929C17.7519 22.0879 17.9235 22.2675 18.0963 22.409C18.4005 22.0658 18.7963 21.6876 19.1252 21.3609L20.7766 19.7204L26.0243 14.5142L27.4956 13.0535C28.3808 12.1759 29.1103 11.5464 29.0279 10.1763C28.9966 9.65486 28.8226 9.15194 28.5244 8.72166C28.2585 8.33777 27.7593 7.87452 27.4149 7.53276L25.8315 5.96251L23.7439 3.88698C22.6634 2.81265 22.0285 1.90591 20.3528 1.99329C19.6 2.10551 19.1173 2.27941 18.5598 2.82739C18.1357 3.24416 17.713 3.6666 17.2915 4.08582L14.2805 7.07556L10.3967 10.931L9.18863 12.1298C8.96896 12.3476 8.6524 12.6454 8.45908 12.8733ZM7.33043 27.006C7.72259 27.0493 8.43036 27.0277 8.85362 27.0276L11.6131 27.026C12.142 27.0266 12.9293 27.0481 13.4375 27.0134L15.6007 24.864C15.868 24.5991 16.4624 24.045 16.6885 23.778C15.6412 22.7493 7.22317 14.3057 7.06009 14.2524L4.20561 17.0772C3.22493 18.0509 1.93387 18.9839 1.96591 20.4814C1.98702 21.4653 2.32831 22.0534 3.01107 22.7339L5.83616 25.5367C6.21938 25.9177 6.95929 26.6977 7.33043 27.006Z" fill="black"/>
</g>
</g>
<defs>
<clipPath id="clip0_228_89">
<rect width="31" height="29" fill="white"/>
</clipPath>
</defs>
</svg>
