<svg width="14" height="15" viewBox="0 0 14 15" fill="none" xmlns="http://www.w3.org/2000/svg">
<g clip-path="url(#clip0_224_73)">
<mask id="mask0_224_73" style="mask-type:luminance" maskUnits="userSpaceOnUse" x="0" y="0" width="14" height="15">
<path d="M14 0H0V15H14V0Z" fill="white"/>
</mask>
<g mask="url(#mask0_224_73)">
<path d="M11.0465 0.016625C11.1536 0.0114807 11.2454 0.0449876 11.3226 0.12335C11.4604 0.263225 11.5951 0.406628 11.7314 0.548269L12.5177 1.36375L13.5443 2.42786C13.6683 2.55628 13.8657 2.72587 13.9594 2.8796C14.0051 2.95446 13.9931 3.10459 13.9596 3.18848C13.9419 3.23298 13.9165 3.27371 13.8844 3.30859C13.7125 3.49449 13.5243 3.68282 13.3485 3.86622L12.1604 5.10381L9.36382 8.02817L8.0569 9.39886L7.70718 9.76571C7.43335 10.0539 7.43337 10.0599 7.07489 10.2105L6.64568 10.3904L4.96695 11.0897C4.37861 11.3398 3.77754 11.5765 3.18364 11.8121C2.9965 11.8863 2.79917 11.7928 2.7465 11.5913C2.72827 11.5216 2.74186 11.4667 2.76304 11.3999C2.87219 11.0679 2.9947 10.7403 3.11088 10.4109C3.34999 9.72207 3.59347 9.03492 3.84132 8.34942L4.19879 7.34128C4.25409 7.18618 4.32386 6.96857 4.3983 6.82709C4.42146 6.78305 4.59054 6.61393 4.63478 6.56815L5.07184 6.11566L6.6777 4.44767L9.83388 1.1765L10.5316 0.447625C10.6397 0.334137 10.7465 0.218036 10.8565 0.106658C10.9162 0.04625 10.9682 0.0355123 11.0465 0.016625ZM7.50981 8.57146L7.5234 8.57463L11.1072 4.79786L9.94118 3.59735L9.58011 3.2221C9.53528 3.17543 9.44799 3.07912 9.40429 3.04132C9.31273 3.13163 9.21462 3.24006 9.12262 3.33438L8.39348 4.08526L6.74156 5.80007L6.09922 6.46772C6.00867 6.5619 5.86782 6.71751 5.77518 6.80146C6.21078 7.2285 6.6315 7.68521 7.06489 8.11618C7.21545 8.26592 7.35457 8.4221 7.50981 8.57146ZM10.0722 2.33769C10.1758 2.43074 10.2793 2.54055 10.3762 2.64194C10.8388 3.1261 11.3118 3.59933 11.7718 4.08626C12.1035 3.74532 12.443 3.37852 12.7722 3.0318L11.4899 1.7093C11.4214 1.6385 11.1411 1.32684 11.0839 1.29128C10.8881 1.4986 10.6903 1.70397 10.4907 1.90739C10.3564 2.0464 10.21 2.20411 10.0722 2.33769ZM4.18844 10.3004C4.57939 10.1482 4.95261 9.97882 5.33887 9.82242L6.73956 9.24125C6.39386 8.87754 6.01147 8.49238 5.65827 8.13409L5.33259 7.80232C5.28125 7.74985 5.20126 7.66271 5.14838 7.61799C4.93068 8.26059 4.67672 8.90152 4.45868 9.54471C4.37927 9.77894 4.2551 10.0737 4.18844 10.3004Z" fill="black"/>
<path d="M0.2898 1.42187C0.358455 1.41603 0.480592 1.41928 0.55235 1.41934L1.01728 1.41967L2.48853 1.41882L4.21414 1.41919L4.76583 1.41857C4.87595 1.41843 5.0947 1.39497 5.18475 1.46299C5.22868 1.49619 5.24541 1.54476 5.24555 1.60081C5.24585 1.86547 5.25759 2.13445 5.24392 2.39839C5.2405 2.46453 5.14891 2.52428 5.08649 2.5264C4.95692 2.53078 4.82788 2.52908 4.69827 2.52876L3.93758 2.52753L2.14907 2.52838C1.79735 2.52851 1.43483 2.52412 1.08379 2.53151L1.08643 13.877C1.58101 13.8663 2.10928 13.8752 2.60567 13.8752H5.48922L11.8001 13.8779L11.8026 10.6675L11.8024 9.56323C11.8022 9.43276 11.7941 9.06453 11.8149 8.9599C11.8377 8.9292 11.8658 8.89177 11.8993 8.87317C11.953 8.84338 12.686 8.84093 12.7609 8.87231C12.7995 8.88847 12.834 8.9274 12.8503 8.96634C12.8621 8.9947 12.8676 9.02568 12.8684 9.0564C12.8776 9.37711 12.8684 9.70119 12.8684 10.0223L12.8688 11.9756V13.7459C12.8688 14.0365 12.8788 14.33 12.8691 14.62C12.8669 14.6807 12.8603 14.7414 12.836 14.7974C12.8021 14.8763 12.7315 14.9422 12.6533 14.9719C12.5347 15.0169 11.5969 14.9943 11.3928 14.9943L9.06831 14.9946L3.18756 14.994L1.31059 14.9936C1.01328 14.9936 0.715887 14.9944 0.418677 14.9946C0.259842 14.9947 0.14579 14.9715 0.0531719 14.8233C0.00159437 14.7408 0.00535087 14.6855 0.00512442 14.5913C0.00468484 14.4072 0.00488466 14.223 0.0049113 14.0389L0.00539079 12.1833L0.00581702 3.82688L0.00607017 2.40404C0.00611013 2.1843 -0.000323736 1.96144 0.00717579 1.74225C0.012917 1.57405 0.139436 1.45806 0.2898 1.42187Z" fill="black"/>
</g>
</g>
<defs>
<clipPath id="clip0_224_73">
<rect width="14" height="15" fill="white"/>
</clipPath>
</defs>
</svg>
