<svg width="50" height="50" viewBox="0 0 50 50" fill="none" xmlns="http://www.w3.org/2000/svg">
<path d="M3.84556 10.3514C5.57973 10.3152 7.43001 10.3451 9.17347 10.3451L19.1501 10.3444C20.7076 10.3442 22.4343 10.3814 23.9773 10.339L23.9778 13.4274L11.9144 13.4071L8.472 13.406C8.12052 13.4075 7.2645 13.4556 6.95696 13.4108L6.95736 42.1598C8.57849 42.1806 10.2257 42.1654 11.85 42.1654H20.7256L30.1131 42.1638C31.7025 42.1634 33.3258 42.1798 34.9134 42.1606L34.9093 31.6656C34.9093 29.4833 34.8707 27.1786 34.9104 25.0042C35.9205 24.9908 37.0421 24.9837 38.0504 25.0041L38.0473 37.7592L38.0477 42.5534C38.0474 43.4517 38.0591 44.3951 38.0388 45.291C38.0212 45.2276 38.0151 45.2085 38.0108 45.1423L38.0081 45.0956L37.9661 45.0601C37.9681 45.1048 37.9719 45.2324 37.9182 45.2356C37.0681 45.2874 36.0077 45.2631 35.1758 45.2631L25.0314 45.2635L21.831 45.2599C21.6227 45.2583 20.8891 45.2771 20.7344 45.2571C20.8387 45.165 35.7551 45.2906 37.1491 45.2408C37.2582 45.2368 37.5213 45.2583 37.6464 45.2196C37.3962 45.1941 37.0373 45.2033 36.7761 45.2021L35.2446 45.1977L30.362 45.2013L23.8212 45.2021L21.7477 45.2029C21.2998 45.2033 20.7937 45.1945 20.3507 45.224L20.6302 45.2463C20.3089 45.2723 20.0917 45.2252 19.7871 45.2228L17.6643 45.2224L10.4465 45.2244L5.59668 45.2499C5.25553 45.2491 4.91438 45.2515 4.57327 45.2575C4.43683 45.2599 3.99165 45.2723 3.87825 45.2527L3.92351 45.2332C3.82459 44.9497 3.86707 44.2467 3.86757 43.9194L3.87049 41.6307C3.87071 41.4058 3.89397 40.9353 3.84338 40.7324L3.84078 21.8805L3.84089 14.3166C3.84091 13.0192 3.81702 11.6434 3.84556 10.3514Z" fill="black"/>
<path d="M34.1397 8.95557C34.2873 9.01924 34.8397 9.608 34.9791 9.74823L36.2217 10.9929L40.0851 14.8551C39.5815 15.4161 39.0281 15.942 38.4966 16.4761L36.1695 18.8353L28.4773 26.6302L26.3696 28.7596C25.9541 29.1778 25.4755 29.6333 25.0894 30.0685L22.6017 30.6074L19.344 31.3099C18.8089 31.4243 18.1889 31.589 17.6602 31.6684C17.7653 30.9968 17.9282 30.2539 18.0606 29.5824C18.303 28.3057 18.5586 27.0316 18.8274 25.7602C18.9286 25.2652 19.0373 24.6816 19.1417 24.1974C19.1891 23.977 19.9173 23.3267 20.1187 23.1244L21.9202 21.2969L29.5538 13.5959L32.7171 10.4057C33.1902 9.92694 33.6628 9.42714 34.1397 8.95557Z" fill="black"/>
<path d="M40.3257 2.7749C40.4704 2.78415 41.212 3.60047 41.348 3.73987L42.6371 5.045C43.8205 6.22004 44.9975 7.40138 46.1686 8.58894C46.0175 8.77239 45.7663 9.007 45.5944 9.18072L44.6355 10.1584C43.7276 11.082 42.7655 12.0898 41.8452 12.994C41.6933 12.8907 41.3647 12.5409 41.2116 12.3889L39.851 11.0266C38.6041 9.77147 37.2066 8.4381 36.002 7.16154C36.1102 7.02 36.3874 6.75353 36.5203 6.621L37.4498 5.69396C38.4142 4.72658 39.3727 3.75355 40.3257 2.7749Z" fill="black"/>
<path d="M3.84344 40.7324C3.89403 40.9354 3.87077 41.4059 3.87055 41.6307L3.86763 43.9194C3.86713 44.2468 3.82465 44.9497 3.92357 45.2332L3.87831 45.2528C3.99171 45.2723 4.43689 45.2599 4.57333 45.2575C4.91444 45.2516 5.25559 45.2492 5.59673 45.25L10.4466 45.2244L17.6644 45.2225L19.7872 45.2228C20.0918 45.2252 20.3089 45.2723 20.6302 45.2464L20.3508 45.224C20.7937 45.1945 21.2998 45.2033 21.7478 45.2029L23.8213 45.2021L30.362 45.2013L35.2447 45.1977L36.7761 45.2021C37.0374 45.2033 37.3963 45.1941 37.6464 45.2197C37.5214 45.2583 37.2583 45.2368 37.1491 45.2408C35.7551 45.2906 20.8387 45.165 20.7345 45.2571C20.8892 45.2771 21.6227 45.2583 21.8311 45.2599L25.0315 45.2635L35.1759 45.2631C36.0077 45.2631 37.0681 45.2874 37.9182 45.2356C37.9719 45.2324 37.9681 45.1048 37.9662 45.0602L38.0082 45.0957L38.0109 45.1423C38.0152 45.2085 38.0213 45.2276 38.0388 45.291C36.7095 45.3369 35.1514 45.2966 33.7977 45.2962L25.5554 45.2954L3.83057 45.3114C3.86603 43.8078 3.83236 42.2428 3.84344 40.7324Z" fill="black"/>
</svg>
