<svg width="14" height="14" viewBox="0 0 14 14" fill="none" xmlns="http://www.w3.org/2000/svg">
<path d="M11.1933 0C11.2378 0.0125224 11.6755 0.451462 11.7402 0.514498C12.0423 0.80291 12.3416 1.09415 12.6381 1.3882L13.5153 2.25508C13.6715 2.40972 13.8514 2.57981 14 2.73817C13.9617 2.79594 13.7034 3.04189 13.6411 3.10404C13.3821 3.36659 13.1219 3.62781 12.8603 3.8877L8.13784 8.58476C8.04154 8.6781 7.94681 8.77299 7.85366 8.86939C7.79354 8.93164 7.65407 9.09013 7.58479 9.11919C7.42319 9.18698 7.22597 9.24918 7.0593 9.30845L5.30951 9.91901C4.81758 10.102 4.30855 10.2563 3.8137 10.4326C3.61862 10.5021 3.42041 10.5701 3.22261 10.6316C3.61526 9.56273 3.98527 8.47309 4.36993 7.39983L4.62547 6.68126C4.66079 6.58216 4.70911 6.4313 4.7551 6.34229C4.76729 6.31869 4.91153 6.18414 4.93956 6.15702L5.21118 5.88893L6.44178 4.67697C8.01767 3.11013 9.60154 1.55112 11.1933 0ZM5.94232 6.16216C6.36462 6.57112 6.77878 6.99973 7.20239 7.40833C7.38392 7.58341 7.5825 7.7983 7.76752 7.96421C7.88001 7.85906 7.99245 7.74119 8.10214 7.63219L8.66488 7.07448L10.1026 5.64205C10.5246 5.21851 10.9732 4.75472 11.4084 4.34845C11.0274 3.97878 10.6486 3.60691 10.2721 3.23287C10.0654 3.0282 9.79296 2.74247 9.58239 2.55307C9.28374 2.87442 8.91092 3.2262 8.59592 3.53809L6.21569 5.89079C6.13027 5.97526 6.0216 6.07649 5.94232 6.16216ZM11.9094 3.85012C12.2774 3.48004 12.6476 3.11212 13.02 2.74637C12.507 2.21613 11.9584 1.70909 11.4374 1.18609C11.3641 1.11256 11.2842 1.03163 11.2074 0.962974C10.8351 1.3309 10.4561 1.69324 10.0865 2.06355C10.229 2.21359 10.3923 2.3663 10.5407 2.51254C10.795 2.76586 11.051 3.0174 11.3089 3.26715C11.434 3.38786 11.5582 3.5094 11.6816 3.63173C11.7459 3.69514 11.8411 3.79389 11.9094 3.85012ZM4.40128 9.47149C4.56992 9.42108 4.74704 9.35456 4.91421 9.29612L6.77648 8.64519C6.92262 8.59397 7.13087 8.53103 7.26876 8.47208C7.12679 8.32328 6.96061 8.16763 6.81309 8.02188L5.99871 7.21702C5.87765 7.09818 5.7575 6.97843 5.6383 6.85777C5.59295 6.81201 5.48556 6.69886 5.4375 6.6606C5.40843 6.68302 5.37747 6.70916 5.36391 6.74387C5.31644 6.86546 5.27283 6.99405 5.22934 7.11701L4.58811 8.92969C4.53102 9.09207 4.44662 9.31059 4.40128 9.47149Z" fill="black"/>
<path d="M0.00964165 1.33068C0.250863 1.33606 0.496746 1.33675 0.73819 1.33474C2.22508 1.32245 3.71739 1.35217 5.20379 1.33144C5.20936 1.56233 5.20608 1.80643 5.20349 2.03777L2.31737 2.03816C1.78731 2.03812 1.238 2.03075 0.709124 2.04031L0.710387 13.292C1.07372 13.3058 1.52387 13.2934 1.89225 13.2931L12.0978 13.294L12.0903 11.3317C12.0885 11.1668 12.098 10.9841 12.0983 10.8144L12.0988 8.67504C12.0987 8.57211 12.101 8.4392 12.0928 8.33908C12.3179 8.33458 12.5673 8.33786 12.7931 8.34218C12.8008 8.46001 12.797 8.60752 12.797 8.72674V13.6396C12.797 13.7541 12.8005 13.8816 12.7906 13.9944C12.6524 14.0043 12.4383 13.998 12.2951 13.998H0.00151544L0.00123946 1.81316C0.00127591 1.6751 -0.00480412 1.4631 0.00964165 1.33068Z" fill="black"/>
</svg>
