<svg width="898" height="898" viewBox="0 0 898 898" fill="none" xmlns="http://www.w3.org/2000/svg">
<path d="M449 0L837.845 224.5V673.5L449 898L60.1546 673.5V224.5L449 0Z" fill="#151515"/>
<path d="M191 689.953C199.544 674.501 208.187 655.406 215.928 639.265L255.763 556.427L383.136 292.602L427.675 199.875C435.426 183.752 443.379 166.106 451.631 150.375C459.91 150.411 468.273 150.289 476.558 150.227C474.221 155.496 471.065 161.462 468.54 166.908L436.491 234.851L336.662 442.872L254.144 614.223L229.186 665.833C225.56 673.401 221.61 682.549 217.893 689.834L216.9 690.137L191 689.953Z" fill="white"/>
<path d="M558.17 234.449C555.721 227.192 546.378 208.842 542.616 200.893C535.165 185.147 527.012 165.203 518.796 150.296C527.151 150.236 535.685 150.365 544.055 150.402C562.921 189.028 580.451 228.717 599.924 266.928C591.857 263.983 585.614 261.951 576.899 260.073C490.332 241.409 426.878 331.191 476.052 405.098C488.081 423.178 514.963 442.488 536.449 446.247C527.835 447.807 520.286 449.299 511.849 451.948C486.84 459.801 463.928 476.619 447.567 496.915C435.844 511.457 430.621 523.646 422.8 540.076L407.133 573.158L379.712 629.902C370.325 649.576 360.478 671.069 350.294 690.211C341.782 689.668 332.751 689.916 324.208 690.059C330.973 675.317 339.559 658.927 346.805 644.186L379.605 576.164L398.585 536.029C406.49 519.014 413.045 502.85 424.583 487.981C441.343 466.382 455.243 454.956 478.18 441.15C477.544 439.423 477.186 439.556 475.577 438.154C456.455 421.946 442.463 398.937 437.782 374.245C430.443 388.515 423.706 404.015 416.808 418.532L380.034 495.278L285.874 690.069C277.046 689.979 268.539 689.991 259.714 690.157C261.81 684.857 265.851 677.178 268.496 671.749L286.027 635.8L342.672 518.214L414.058 368.736L437.301 319.925C440.466 313.278 443.566 306.574 446.707 299.943C462.724 266.138 496.234 241.988 533.113 236.461C541.749 235.167 549.402 234.742 558.17 234.449Z" fill="white"/>
<path d="M324.208 690.059C330.973 675.317 339.559 658.927 346.805 644.186L379.605 576.164L398.585 536.029C406.49 519.014 413.045 502.85 424.583 487.981C441.343 466.382 455.243 454.956 478.18 441.15C477.544 439.423 477.186 439.556 475.577 438.154C456.455 421.946 442.463 398.937 437.782 374.245C430.443 388.515 423.706 404.015 416.808 418.532L380.034 495.278L285.874 690.069L324.208 690.059Z" fill="white"/>
<path d="M476.558 150.227C474.221 155.496 471.065 161.462 468.54 166.908L436.491 234.851L336.662 442.872L254.144 614.223L229.186 665.833C225.56 673.401 221.61 682.549 217.893 689.834L216.9 690.137L259.714 690.157C261.81 684.857 265.851 677.178 268.496 671.749L286.027 635.8L342.672 518.214L414.058 368.736L437.301 319.925C440.466 313.278 443.566 306.574 446.707 299.943C462.724 266.138 496.234 241.988 533.113 236.461C541.749 235.167 549.402 234.742 558.17 234.449C555.721 227.192 546.378 208.842 542.616 200.893C535.165 185.147 527.012 165.203 518.796 150.296L476.558 150.227Z" fill="white"/>
<path d="M555.882 281.805C555.882 308.998 567.224 325.827 581.263 335.959C595.428 346.182 612.502 349.687 623.847 349.755L623.832 354.788C596.639 354.788 579.809 366.13 569.678 380.169C559.455 394.335 555.949 411.409 555.882 422.753L550.849 422.738C550.849 395.545 539.507 378.716 525.468 368.584C511.302 358.361 494.228 354.856 482.884 354.788L482.898 349.755C510.091 349.755 526.921 338.413 537.053 324.374C547.276 310.208 550.781 293.134 550.849 281.79L555.882 281.805Z" fill="#FFC04B" stroke="#FFC04B" stroke-width="5.03333"/>
<path d="M625.633 501.719C625.633 528.459 636.786 545.008 650.591 554.971C664.494 565.005 681.247 568.458 692.402 568.537H692.45C692.455 568.537 692.46 568.538 692.465 568.538L692.45 573.487C665.71 573.487 649.161 584.64 639.198 598.445C629.146 612.374 625.699 629.164 625.633 640.319L620.683 640.304C620.683 613.564 609.53 597.015 595.725 587.052C581.795 577 565.006 573.553 553.851 573.487L553.865 568.537C580.605 568.537 597.154 557.384 607.117 543.579C617.151 529.675 620.604 512.921 620.683 501.766V501.719H620.684C620.684 501.714 620.684 501.709 620.684 501.705L625.633 501.719Z" fill="#FFC04B" stroke="#FFC04B" stroke-width="4.94947"/>
<path d="M660.888 414.771C660.888 432.132 668.13 442.877 677.093 449.345C686.137 455.872 697.037 458.11 704.279 458.153L704.27 461.366C686.909 461.366 676.165 468.608 669.696 477.571C663.17 486.615 660.931 497.515 660.888 504.757L657.675 504.748C657.675 487.387 650.434 476.643 641.471 470.174C632.427 463.648 621.526 461.409 614.283 461.366L614.293 458.153C631.654 458.153 642.399 450.912 648.867 441.949C655.394 432.905 657.632 422.004 657.675 414.761L660.888 414.771Z" fill="#FFC04B" stroke="#FFC04B" stroke-width="3.21346"/>
<path d="M538.922 477.771C529.122 496.783 523.588 518.353 523.588 541.216C523.588 617.8 585.672 679.884 662.256 679.884C677.862 679.884 692.865 677.305 706.864 672.551C683.837 717.224 637.254 747.773 583.533 747.773C506.949 747.773 444.865 685.69 444.865 609.106C444.865 548.129 484.224 496.345 538.922 477.771Z" fill="#3D3D3D"/>
</svg>
