<svg width="114" height="118" viewBox="0 0 114 118" fill="none" xmlns="http://www.w3.org/2000/svg">
<path fill-rule="evenodd" clip-rule="evenodd" d="M13.4878 41.9137C40.3312 30.3417 58.2311 22.7126 67.1874 19.0267C92.7592 8.50246 98.0729 6.67429 101.536 6.61392C102.298 6.60065 104.001 6.78744 105.104 7.67321C106.036 8.42115 106.292 9.43149 106.415 10.1406C106.538 10.8497 106.69 12.4651 106.569 13.7274C105.183 28.1342 99.187 63.0957 96.1365 79.2316C94.8457 86.0593 92.3041 88.3486 89.8436 88.5726C84.4963 89.0595 80.4358 85.076 75.2566 81.7168C67.1523 76.4602 62.5739 73.188 54.7072 68.0586C45.6159 62.1307 51.5094 58.8726 56.6905 53.548C58.0464 52.1545 81.6068 30.9502 82.0629 29.0267C82.1199 28.7861 82.1728 27.8894 81.6344 27.4158C81.096 26.9423 80.3014 27.1043 79.7279 27.233C78.9151 27.4156 65.9683 35.8828 40.8876 52.6346C37.2127 55.1315 33.8841 56.3481 30.9018 56.2843C27.614 56.2141 21.2897 54.445 16.5882 52.9328C10.8216 51.078 6.23842 50.0974 6.63751 46.9475C6.84538 45.3068 9.1288 43.6289 13.4878 41.9137Z" fill="white"/>
<rect x="46.6133" y="91.2585" width="20" height="20" rx="10" fill="white"/>
<path d="M51.6133 96.4585L61.6131 106.458M61.6133 96.4585L51.6134 106.458" stroke="#7A7A7A" stroke-width="2"/>
</svg>
