<svg width="27" height="27" viewBox="0 0 27 27" fill="none" xmlns="http://www.w3.org/2000/svg">
<path d="M12.5486 0.0129715C12.4481 0.023538 12.1363 0.0605211 11.8614 0.0869375C10.1171 0.277136 8.18775 0.932263 6.62843 1.86212C4.64624 3.04558 3.03406 4.65698 1.85004 6.63821C0.92502 8.18093 0.311864 9.97725 0.0634299 11.8687C-0.0211433 12.5185 -0.0211433 14.4945 0.0634299 15.1443C0.496868 18.4358 1.94518 21.2201 4.39781 23.4972C5.75098 24.7599 7.43716 25.7426 9.27134 26.3449C10.7197 26.8257 11.8667 27 13.5 27C14.7052 27 15.239 26.9525 16.3015 26.7358C19.9434 25.9909 23.1942 23.6557 25.15 20.3748C26.075 18.832 26.6881 17.0357 26.9366 15.1443C27.0211 14.4945 27.0211 12.5185 26.9366 11.8687C26.6881 9.97725 26.075 8.18093 25.15 6.63821C23.9659 4.65698 22.3538 3.04558 20.3716 1.86212C18.844 0.948113 17.0204 0.324685 15.1915 0.0869375C14.7263 0.023538 12.8763 -0.0240115 12.5486 0.0129715ZM14.5836 1.61909C17.6652 1.90439 20.6412 3.45239 22.6022 5.79289C25.1764 8.86248 26.0485 12.8566 24.9914 16.7134C24.5844 18.198 23.8655 19.6192 22.8876 20.8608C22.7079 21.088 22.5546 21.2729 22.5388 21.2729C22.5229 21.2729 22.4383 21.0457 22.3538 20.7657C21.9045 19.2653 20.8579 17.6539 19.6474 16.5919C18.8863 15.9262 17.8449 15.287 16.9094 14.9066L16.6979 14.822L16.8829 14.6847C17.2159 14.4363 18.0247 13.5857 18.2202 13.2793C18.9708 12.1117 19.288 10.849 19.1558 9.55987C18.9603 7.62619 17.8291 5.96195 16.1165 5.06908C12.5538 3.21993 8.25117 5.54986 7.84417 9.55987C7.73845 10.6007 7.93931 11.6943 8.40446 12.6189C8.77976 13.3638 9.40348 14.1352 10.0166 14.6001C10.1594 14.7058 10.2756 14.8115 10.2756 14.8273C10.2756 14.8432 10.1012 14.9224 9.88978 15.0069C8.46261 15.5828 7.03543 16.7029 6.03641 18.0237C5.46026 18.7898 4.91053 19.8676 4.64095 20.771C4.56167 21.0457 4.47709 21.2729 4.46124 21.2729C4.41895 21.2729 3.81637 20.491 3.51507 20.0419C3.18207 19.5453 2.59534 18.4041 2.35748 17.7965C1.94518 16.7504 1.68618 15.5406 1.59632 14.2303C1.32146 10.4422 3.02878 6.59595 6.03113 4.20262C8.45732 2.26893 11.5337 1.33908 14.5836 1.61909ZM14.61 6.16272C15.9685 6.5484 17.0309 7.61034 17.4432 8.98928C17.6282 9.61799 17.6388 10.5161 17.4749 11.1343C16.9834 12.9676 15.387 14.1933 13.5 14.1933C11.613 14.1933 10.0166 12.9676 9.52506 11.1343C9.3612 10.5161 9.37177 9.61799 9.55677 8.98928C10.0219 7.42542 11.2271 6.36348 12.9186 6.03592C13.2251 5.9778 14.2242 6.05177 14.61 6.16272ZM14.5836 15.9421C16.2222 16.1534 17.6705 16.8825 18.9233 18.1294C19.8641 19.0698 20.4561 20.0208 20.8367 21.2201C20.9742 21.648 21.1909 22.6519 21.1486 22.673C21.1433 22.6783 20.9847 22.7998 20.7944 22.9477C19.1664 24.2157 17.2054 25.0293 15.0065 25.3463C14.3933 25.4361 12.6067 25.4361 11.9935 25.3463C9.79464 25.0293 7.83359 24.2157 6.20556 22.9477C6.01527 22.7998 5.8567 22.6783 5.85141 22.673C5.84084 22.6677 5.87255 22.4669 5.91484 22.2292C6.39585 19.4977 8.3516 17.2101 10.9945 16.2908C12.1627 15.884 13.2727 15.773 14.5836 15.9421Z" fill="black"/>
</svg>
