<svg width="24" height="24" viewBox="0 0 24 24" fill="none" xmlns="http://www.w3.org/2000/svg">
<g clip-path="url(#clip0_243_73)">
<path d="M9.62204 0H14.3598C14.4738 0.0708463 14.6979 0.112702 14.8321 0.1702C15.3635 0.397902 15.7641 0.854165 15.9077 1.41567C16.1404 2.2433 15.9809 3.32782 16.8404 3.81372C17.2345 4.03653 17.6697 4.05667 18.0926 3.92566C19.0956 3.61501 19.9375 3.00795 21.0007 3.61182C21.2208 3.73794 21.4145 3.90533 21.5712 4.1048C21.736 4.31406 21.882 4.58272 22.0192 4.81518L22.6283 5.84538L23.3788 7.0997C23.6804 7.60383 23.8374 7.82628 24 8.40052V8.89793C23.9063 9.13722 23.8852 9.33463 23.7463 9.56237C23.3239 10.2552 22.4917 10.5813 21.9884 11.2018C21.8671 11.3513 21.7807 11.6167 21.7514 11.8045C21.7123 12.0526 21.7443 12.3067 21.8436 12.5374C22.1434 13.2247 23.2627 13.6986 23.7033 14.3537C23.9268 14.686 23.8796 14.8261 24 15.0893V15.6151C23.9403 15.7688 23.8963 15.9714 23.8285 16.1069C23.6659 16.4317 23.462 16.7541 23.2743 17.0675L22.4751 18.4079C22.3137 18.676 22.1542 18.9451 21.9966 19.2154C21.8547 19.4579 21.6998 19.7416 21.5195 19.9547C21.3241 20.1865 21.0789 20.3712 20.8022 20.495C19.2942 21.1606 18.2321 19.4505 16.814 20.2043C16.5738 20.3319 16.3285 20.6337 16.2423 20.8863C15.959 21.7155 16.1197 22.7255 15.4497 23.3958C15.2771 23.5684 15.0863 23.7248 14.861 23.8253C14.7173 23.8934 14.4674 23.9257 14.3585 24H9.65733C9.56941 23.9443 9.31428 23.8819 9.19748 23.8404C8.93022 23.7456 8.73757 23.6026 8.54152 23.4002C8.06485 22.8991 7.97048 22.1159 7.88661 21.4471C7.79948 20.752 7.40707 20.0765 6.62348 20.0136C5.42517 19.9173 4.59625 20.9757 3.33751 20.5478C3.02508 20.4422 2.74424 20.2597 2.52081 20.0171C2.34847 19.8296 2.14693 19.4719 2.01603 19.2493L1.47282 18.3316L0.66778 16.9855C0.50693 16.7165 0.341105 16.4475 0.192319 16.1718C0.110816 16.0208 0.0801072 15.8182 0 15.6659V15.0649C0.0247274 15.0271 0.0721963 14.8795 0.0813907 14.8323C0.285324 13.7851 1.87794 13.3481 2.18274 12.4482C2.24087 12.2722 2.26445 12.0865 2.25218 11.9014C2.19229 10.871 0.972091 10.512 0.379689 9.76859C0.0981098 9.41524 0.145808 9.24385 0 8.94711V8.34704C0.0278281 8.30459 0.15935 7.88263 0.25194 7.72376C0.672698 7.0018 1.10748 6.2868 1.53367 5.56882L2.02092 4.74164C2.42695 4.04864 2.64417 3.64351 3.50028 3.40822C4.78865 3.05412 5.89746 4.48705 7.12337 3.82491C8.02833 3.3361 7.85126 2.23961 8.09596 1.39912C8.25157 0.864496 8.607 0.389711 9.1335 0.173422C9.26785 0.1173 9.5083 0.0683687 9.62204 0ZM12.207 14.7801C13.7437 14.6639 14.8945 13.3231 14.7764 11.7865C14.6583 10.25 13.316 9.10083 11.7796 9.22089C10.246 9.34076 9.09926 10.6802 9.21717 12.214C9.33515 13.7477 10.6731 14.8961 12.207 14.7801Z" fill="white"/>
</g>
<defs>
<clipPath id="clip0_243_73">
<rect width="24" height="24" fill="white"/>
</clipPath>
</defs>
</svg>
