<svg width="114" height="119" viewBox="0 0 114 119" fill="none" xmlns="http://www.w3.org/2000/svg">
<path fill-rule="evenodd" clip-rule="evenodd" d="M13.4878 42.3442C40.3312 30.631 58.2311 22.909 67.1874 19.178C92.7592 8.5255 98.0729 6.67504 101.536 6.61393C102.298 6.60049 104.001 6.78956 105.104 7.68614C106.036 8.44319 106.292 9.46586 106.415 10.1836C106.538 10.9014 106.69 12.5365 106.569 13.8141C105.183 28.3966 99.187 63.7845 96.1365 80.1172C94.8457 87.0282 92.3041 89.3454 89.8436 89.5722C84.4963 90.065 80.4358 86.0329 75.2566 82.6327C67.1523 77.312 62.5739 73.9999 54.7072 68.808C45.6159 62.8077 51.5094 59.5099 56.6905 54.1204C58.0464 52.7099 81.6068 31.247 82.0629 29.3C82.1199 29.0565 82.1728 28.1488 81.6344 27.6695C81.096 27.1903 80.3014 27.3541 79.7279 27.4845C78.9151 27.6693 65.9683 36.2397 40.8876 53.1959C37.2127 55.7232 33.8841 56.9546 30.9018 56.8901C27.614 56.8189 21.2897 55.0283 16.5882 53.4977C10.8216 51.6203 6.23842 50.6277 6.63751 47.4394C6.84538 45.7787 9.1288 44.0803 13.4878 42.3442Z" fill="black"/>
<rect x="46.6133" y="92.2585" width="20" height="20" rx="10" fill="#97E8E9"/>
<path d="M50.6133 101.968L53.4214 106.832L62.0432 98.21" stroke="black" stroke-width="2.21072"/>
</svg>
