<svg width="27" height="27" viewBox="0 0 27 27" fill="none" xmlns="http://www.w3.org/2000/svg">
<path d="M10.9066 0H16.0787C16.0823 0.00139494 16.0859 0.0028331 16.0895 0.00418482C16.2408 0.0609335 16.4057 0.0822472 16.5592 0.137795C17.0939 0.331229 17.53 0.726685 17.7657 1.23068C18.2644 2.29684 17.7929 3.8889 19.2077 4.41356C20.5219 4.90092 21.6765 3.36665 23.2364 3.88722C23.5796 4.00175 23.8883 4.19805 24.1331 4.45759C24.3917 4.73164 24.5691 5.08213 24.7598 5.40243L26.3058 7.99854C26.4704 8.27455 26.668 8.57867 26.8053 8.86507C27.1988 9.68556 26.9687 10.7057 26.2657 11.2989C26.1405 11.4054 26.0117 11.5077 25.8826 11.6103L25.2882 12.0822C25.101 12.2311 24.9101 12.3742 24.7657 12.5651C24.4227 13.0186 24.3557 13.6243 24.59 14.1386C24.7499 14.4896 24.9782 14.67 25.2738 14.9051L25.9125 15.4129C26.4754 15.8608 26.8443 16.2013 26.9698 16.9407C27.1122 17.7797 26.7272 18.2937 26.3175 18.9775L24.7618 21.5902C24.5889 21.8817 24.4261 22.1999 24.2057 22.46C23.9883 22.7168 23.704 22.9233 23.3906 23.0569C21.6862 23.7835 20.3816 21.8571 18.9336 22.7179C18.6385 22.8934 18.4084 23.1552 18.2807 23.4674C18.1837 23.7046 18.1522 23.9646 18.1096 24.2149C18.0394 24.6274 17.9896 25.1142 17.865 25.5101C17.6779 26.1045 17.228 26.5827 16.6436 26.8342C16.479 26.905 16.2314 26.9254 16.0954 27H10.9221C10.7644 26.9282 10.5029 26.8965 10.3051 26.8111C10.0747 26.7117 9.86581 26.5673 9.68596 26.3964C9.04837 25.7904 9.02427 25.0117 8.8881 24.2096C8.84675 23.9664 8.81558 23.7142 8.72315 23.4833C8.59683 23.1678 8.36676 22.903 8.0712 22.7237C6.61361 21.8392 5.32156 23.8106 3.57176 23.042C3.27215 22.9104 2.99745 22.7092 2.79063 22.461C2.57343 22.2004 2.41271 21.8895 2.24014 21.5996L1.44333 20.2603L0.636225 18.9072C0.238878 18.2408 -0.0986177 17.7807 0.0264606 16.968C0.143566 16.2072 0.526278 15.8513 1.10317 15.3931L1.72941 14.8959C2.01294 14.6705 2.25175 14.482 2.40354 14.1472C2.63786 13.6304 2.58023 13.0175 2.22853 12.5634C2.07932 12.3708 1.90003 12.2353 1.71044 12.0844L1.10688 11.6048C0.660793 11.2505 0.360913 11.0207 0.139551 10.4699C-0.0495069 9.99949 -0.0410185 9.35466 0.177741 8.89719C0.307028 8.62676 0.532856 8.26875 0.692134 8.00123L2.25492 5.37611C2.44043 5.06408 2.6145 4.72054 2.8642 4.45203C3.10462 4.19349 3.41009 4.00387 3.74868 3.89006C5.31819 3.36244 6.4683 4.90118 7.78086 4.4143C9.21282 3.88313 8.72957 2.29411 9.23818 1.22062C9.472 0.72708 9.88708 0.338769 10.4116 0.144814C10.5698 0.0863256 10.7386 0.0616739 10.896 0.0040081C10.8996 0.00270658 10.9031 0.00133603 10.9066 0ZM4.46412 5.88959L3.00209 8.34216C2.73344 8.79325 2.43287 9.27693 2.17926 9.73213C2.43027 9.91106 2.67307 10.1233 2.9171 10.3126C3.14035 10.4858 3.3637 10.6664 3.57382 10.854C4.93032 12.1118 5.10721 14.2231 3.98833 15.6824C3.66675 16.1018 3.28326 16.4013 2.86703 16.7264C2.64102 16.9056 2.40975 17.0983 2.18028 17.2717L3.8652 20.1047C3.96997 20.2805 4.37276 21.0015 4.46604 21.0884C4.70803 21.0679 5.3326 20.7922 5.59357 20.7052C5.99544 20.5712 6.26951 20.4577 6.70609 20.3999C8.58084 20.1513 10.4206 21.3333 10.8882 23.1152C10.9615 23.3944 11.0029 23.6792 11.0529 23.963C11.1026 24.2683 11.1668 24.5793 11.2089 24.885C11.7459 24.8999 12.3121 24.8906 12.8523 24.8906L15.7837 24.891L15.9584 23.8921C16.008 23.6039 16.0496 23.3274 16.1298 23.0451C16.6384 21.2568 18.52 20.1021 20.4094 20.419C21.1488 20.543 21.8253 20.8948 22.5369 21.1125C22.7224 20.7807 22.9359 20.4356 23.1312 20.1076L24.1743 18.3566L24.5903 17.66C24.6478 17.5637 24.7739 17.3634 24.8125 17.2658C24.5593 17.0763 24.3132 16.8719 24.0659 16.6761C23.8412 16.4982 23.6085 16.3175 23.4013 16.1226C22.0385 14.8407 21.8996 12.7071 23.056 11.2538C23.401 10.8201 23.8108 10.5207 24.245 10.1768C24.4032 10.0499 24.6479 9.84429 24.8099 9.7335C24.7443 9.57857 24.5077 9.20183 24.4119 9.04141L23.618 7.71029L22.8872 6.48216C22.8054 6.34479 22.6096 5.99664 22.5259 5.89048C21.3908 6.28784 20.4562 6.78902 19.2459 6.59422C17.2273 6.26933 16.0947 4.79302 15.9211 2.89596C15.8992 2.65625 15.821 2.37077 15.7926 2.12026C15.409 2.10338 14.9651 2.11344 14.5767 2.11335L12.4378 2.11339L11.6716 2.11511C11.5512 2.1155 11.3299 2.12197 11.218 2.10844L11.2138 2.12517C11.0967 2.60722 11.0405 3.16694 10.9419 3.66102C10.5409 5.66989 8.43009 7.01557 6.37391 6.54133C5.7262 6.39146 5.10335 6.08808 4.46412 5.88959Z" fill="black"/>
<path d="M13.3106 8.30049C16.271 8.20003 18.7557 10.4434 18.8623 13.313C18.9689 16.1826 16.657 18.5933 13.6968 18.6994C10.7324 18.8058 8.2412 16.5609 8.13446 13.6873C8.02778 10.8137 10.346 8.40105 13.3106 8.30049ZM13.6427 16.5867C15.4019 16.5094 16.763 15.0638 16.6823 13.3586C16.6015 11.6534 15.1095 10.3348 13.3505 10.414C11.5927 10.4932 10.2337 11.9381 10.3144 13.642C10.3951 15.3459 11.8849 16.664 13.6427 16.5867Z" fill="black"/>
</svg>
