<svg width="24" height="24" viewBox="0 0 24 24" fill="none" xmlns="http://www.w3.org/2000/svg">
<path d="M9.69478 0H14.2922C14.2954 0.00123995 14.2985 0.00251831 14.3017 0.00371984C14.4363 0.0541631 14.5828 0.0731086 14.7193 0.122485C15.1946 0.294426 15.5822 0.645942 15.7918 1.09394C16.2351 2.04163 15.8159 3.4568 17.0735 3.92317C18.2416 4.35637 19.268 2.99258 20.6546 3.45531C20.9596 3.55711 21.234 3.7316 21.4517 3.9623C21.6815 4.20591 21.8392 4.51745 22.0087 4.80216L23.3829 7.10981C23.5292 7.35516 23.7049 7.62548 23.827 7.88006C24.1767 8.60939 23.9722 9.51619 23.3473 10.0435C23.236 10.1381 23.1215 10.2291 23.0068 10.3202L22.4784 10.7397C22.312 10.872 22.1423 10.9993 22.014 11.169C21.7091 11.5721 21.6495 12.1105 21.8578 12.5676C21.9999 12.8796 22.2028 13.04 22.4656 13.2489L23.0333 13.7003C23.5337 14.0985 23.8616 14.4011 23.9732 15.0584C24.0997 15.8042 23.7575 16.2611 23.3933 16.8689L22.0105 19.1913C21.8568 19.4504 21.7121 19.7332 21.5162 19.9645C21.3229 20.1927 21.0703 20.3763 20.7917 20.4951C19.2766 21.1409 18.1169 19.4286 16.8299 20.1937C16.5675 20.3497 16.3631 20.5824 16.2495 20.8599C16.1633 21.0707 16.1353 21.3018 16.0974 21.5244C16.0351 21.891 15.9907 22.3237 15.88 22.6757C15.7137 23.204 15.3138 23.6291 14.7943 23.8526C14.648 23.9156 14.4279 23.9337 14.3071 24H9.70852C9.56833 23.9362 9.33592 23.908 9.16005 23.8321C8.95525 23.7437 8.76961 23.6153 8.60974 23.4634C8.04299 22.9248 8.02157 22.2326 7.90053 21.5197C7.86378 21.3035 7.83607 21.0793 7.75391 20.874C7.64163 20.5936 7.43712 20.3582 7.1744 20.1988C5.87876 19.4126 4.73027 21.165 3.17489 20.4818C2.90858 20.3648 2.6644 20.186 2.48056 19.9654C2.28749 19.7337 2.14463 19.4573 1.99123 19.1996L1.28296 18.0091L0.565533 16.8064C0.212336 16.214 -0.0876602 15.805 0.0235206 15.0827C0.127614 14.4064 0.467803 14.09 0.980599 13.6828L1.53725 13.2408C1.78928 13.0405 2.00156 12.8729 2.13648 12.5753C2.34476 12.1159 2.29353 11.5711 1.98091 11.1675C1.84829 10.9963 1.68892 10.8758 1.52039 10.7417L0.983897 10.3154C0.587371 10.0004 0.320811 9.79622 0.124045 9.30661C-0.0440061 8.88844 -0.0364609 8.31525 0.157992 7.90861C0.272913 7.66823 0.47365 7.35 0.61523 7.1122L2.00437 4.77877C2.16927 4.5014 2.324 4.19603 2.54595 3.95736C2.75966 3.72754 3.03119 3.559 3.33216 3.45783C4.72728 2.98883 5.7496 4.3566 6.91632 3.92382C8.18918 3.45167 7.75962 2.03921 8.21171 1.085C8.41955 0.646294 8.78852 0.301128 9.25478 0.128724C9.3954 0.0767339 9.54546 0.0548213 9.68535 0.00356275C9.68854 0.00240585 9.69164 0.00118758 9.69478 0ZM3.96811 5.23519L2.66852 7.41525C2.42972 7.81622 2.16255 8.24616 1.93712 8.65078C2.16024 8.80983 2.37607 8.99845 2.59298 9.16673C2.79142 9.32067 2.98995 9.48122 3.17673 9.648C4.3825 10.7661 4.53975 12.6428 3.54518 13.9399C3.25934 14.3127 2.91846 14.5789 2.54847 14.868C2.34757 15.0272 2.142 15.1985 1.93803 15.3526L3.43573 17.8708C3.52886 18.0271 3.88689 18.668 3.96981 18.7453C4.18492 18.727 4.74009 18.4819 4.97206 18.4046C5.32928 18.2855 5.5729 18.1846 5.96097 18.1332C7.62741 17.9123 9.26276 18.963 9.67839 20.5468C9.74353 20.795 9.78033 21.0481 9.82477 21.3005C9.86897 21.5718 9.92603 21.8483 9.9635 22.12C10.4408 22.1333 10.944 22.125 11.4242 22.125L14.0299 22.1254L14.1852 21.2374C14.2293 20.9813 14.2663 20.7354 14.3376 20.4845C14.7897 18.8949 16.4622 17.8686 18.1416 18.1502C18.7989 18.2605 19.4003 18.5732 20.0328 18.7667C20.1977 18.4717 20.3875 18.165 20.5611 17.8734L21.4883 16.317L21.8581 15.6977C21.9092 15.6121 22.0212 15.4341 22.0555 15.3474C21.8305 15.1789 21.6117 14.9973 21.3919 14.8232C21.1922 14.665 20.9854 14.5044 20.8012 14.3312C19.5898 13.1917 19.4663 11.2952 20.4942 10.0034C20.8009 9.61786 21.1652 9.3517 21.5511 9.04603C21.6917 8.9332 21.9093 8.75048 22.0532 8.652C21.995 8.51428 21.7846 8.17941 21.6995 8.03681L20.9938 6.85359L20.3442 5.76192C20.2714 5.63981 20.0975 5.33034 20.023 5.23598C19.014 5.58919 18.1833 6.03469 17.1075 5.86153C15.3132 5.57273 14.3064 4.26046 14.1521 2.57418C14.1326 2.36111 14.0631 2.10735 14.0379 1.88468C13.6969 1.86967 13.3023 1.87861 12.9571 1.87853L11.0558 1.87857L10.3748 1.8801C10.2678 1.88044 10.0711 1.88619 9.97153 1.87417L9.96781 1.88904C9.8637 2.31753 9.81374 2.81505 9.72612 3.25424C9.36973 5.03991 7.49341 6.23606 5.6657 5.81452C5.08996 5.6813 4.53631 5.41163 3.96811 5.23519Z" fill="white"/>
<path d="M11.8318 7.37817C14.4632 7.28888 16.6719 9.28298 16.7666 11.8337C16.8613 14.3845 14.8063 16.5273 12.175 16.6217C9.54004 16.7162 7.32561 14.7208 7.23073 12.1665C7.13591 9.61214 9.19656 7.46756 11.8318 7.37817ZM12.127 14.7437C13.6907 14.675 14.9005 13.39 14.8288 11.8743C14.757 10.3586 13.4308 9.18647 11.8672 9.25687C10.3048 9.32723 9.09675 10.6116 9.16846 12.1261C9.24018 13.6407 10.5645 14.8124 12.127 14.7437Z" fill="white"/>
<path fill-rule="evenodd" clip-rule="evenodd" d="M3.96811 5.23519L2.66852 7.41525C2.42972 7.81622 2.16255 8.24616 1.93712 8.65078C2.16024 8.80983 2.37607 8.99845 2.59298 9.16673C2.79142 9.32067 2.98995 9.48122 3.17673 9.648C4.3825 10.7661 4.53975 12.6428 3.54518 13.9399C3.25934 14.3127 2.91846 14.5789 2.54847 14.868C2.34757 15.0272 2.142 15.1985 1.93803 15.3526L3.43573 17.8708C3.52886 18.0271 3.88689 18.668 3.96981 18.7453C4.18492 18.727 4.74009 18.4819 4.97206 18.4046C5.32928 18.2855 5.5729 18.1846 5.96097 18.1332C7.62741 17.9123 9.26276 18.963 9.67839 20.5468C9.74353 20.795 9.78033 21.0481 9.82477 21.3005C9.86897 21.5718 9.92603 21.8483 9.9635 22.12C10.4408 22.1333 10.944 22.125 11.4242 22.125L14.0299 22.1254L14.1852 21.2374C14.2293 20.9813 14.2663 20.7354 14.3376 20.4845C14.7897 18.8949 16.4622 17.8686 18.1416 18.1502C18.7989 18.2605 19.4003 18.5732 20.0328 18.7667C20.1977 18.4717 20.3875 18.165 20.5611 17.8734L21.4883 16.317L21.8581 15.6977C21.9092 15.6121 22.0212 15.4341 22.0555 15.3474C21.8305 15.1789 21.6117 14.9973 21.3919 14.8232C21.1922 14.665 20.9854 14.5044 20.8012 14.3312C19.5898 13.1917 19.4663 11.2952 20.4942 10.0034C20.8009 9.61786 21.1652 9.3517 21.5511 9.04603C21.6917 8.9332 21.9093 8.75048 22.0532 8.652C21.995 8.51428 21.7846 8.17941 21.6995 8.03681L20.9938 6.85359L20.3442 5.76192C20.2714 5.63981 20.0975 5.33034 20.023 5.23598C19.014 5.58919 18.1833 6.03469 17.1075 5.86153C15.3132 5.57273 14.3064 4.26046 14.1521 2.57418C14.1326 2.36111 14.0631 2.10735 14.0379 1.88468C13.6969 1.86967 13.3023 1.87861 12.9571 1.87853L11.0558 1.87857L10.3748 1.8801C10.2678 1.88044 10.0711 1.88619 9.97153 1.87417L9.96781 1.88904C9.8637 2.31753 9.81374 2.81505 9.72612 3.25424C9.36973 5.03991 7.49341 6.23606 5.6657 5.81452C5.08996 5.6813 4.53631 5.41163 3.96811 5.23519ZM16.7666 11.8337C16.6719 9.28298 14.4632 7.28888 11.8318 7.37817C9.19656 7.46756 7.13591 9.61214 7.23073 12.1665C7.32561 14.7208 9.54004 16.7162 12.175 16.6217C14.8063 16.5273 16.8613 14.3845 16.7666 11.8337Z" fill="white"/>
</svg>
