<svg width="28" height="23" viewBox="0 0 28 23" fill="none" xmlns="http://www.w3.org/2000/svg">
<path d="M13.3545 10.8086C13.609 10.6952 13.8392 10.6875 14.084 10.7988H14.085C14.1012 10.8063 14.117 10.8182 14.1289 10.8271C14.1428 10.8376 14.1598 10.851 14.1777 10.8662C14.2137 10.8968 14.2598 10.9385 14.3145 10.9893C14.4241 11.0911 14.5709 11.2333 14.7441 11.4043C15.0907 11.7465 15.5456 12.2078 16.0264 12.709L17.7686 14.5215L17.8359 14.5908L17.7676 14.6602L17.1719 15.2734L16.5811 15.8916L16.5088 15.9668L16.4365 15.8916L14.6553 14.0449V22.2998H12.7656V14.0439L11.0098 15.8643L10.9385 15.9395L10.8662 15.8643L9.67773 14.6328L9.61133 14.5635L9.67773 14.4941L11.4102 12.7041C11.9411 12.1536 12.3901 11.6964 12.7217 11.3711C12.8874 11.2086 13.0247 11.0786 13.1279 10.9854C13.1794 10.9388 13.2233 10.9005 13.2588 10.8721C13.2908 10.8465 13.3255 10.8209 13.3545 10.8086ZM27.2998 13.4141C27.2998 14.5622 27.1226 15.3279 26.6191 16.333L26.6182 16.332C25.8179 17.9413 24.3316 19.1098 22.5508 19.5381H22.5498C22.209 19.6178 21.7776 19.6389 20.0361 19.6553L17.9355 19.6836L17.834 19.6846V17.7207H19.7969C21.1296 17.7152 21.7588 17.6929 22.0342 17.6455L22.3359 17.5771C25.3002 16.7903 26.426 12.9825 24.3779 10.6172L24.1621 10.3857C23.5424 9.76458 22.9157 9.42292 22.0635 9.23535V9.23633C21.7524 9.17016 21.5347 9.09445 21.3779 8.9375C21.2223 8.78169 21.1396 8.55808 21.0576 8.2373C20.78 7.14578 20.4834 6.43845 19.9727 5.63867H19.9717C18.236 2.91525 15.0584 1.61947 11.9648 2.38086C9.84612 2.89904 8.05364 4.36807 7.05762 6.40625V6.40723C6.63334 7.26817 6.40399 8.03653 6.29395 9.02539L6.25391 9.46289C6.22764 9.84403 6.20083 10.0885 6.14453 10.2666C6.08529 10.4539 5.99429 10.5661 5.85547 10.6865C5.76626 10.7669 5.68793 10.8203 5.55371 10.8574C5.49065 10.8748 5.41486 10.8884 5.31934 10.9014L4.96582 10.9404C3.58559 11.0783 2.40967 12.1449 2.08594 13.5615C2.0462 13.7366 2.02541 14.0221 2.02539 14.3145C2.02539 14.6067 2.04614 14.8941 2.08594 15.0723C2.12847 15.2642 2.23246 15.5362 2.3584 15.8008C2.48436 16.0653 2.62776 16.313 2.74707 16.46C3.11572 16.9168 3.51453 17.2258 4.03906 17.4531L4.27246 17.5459L4.67383 17.6934L9.48633 17.7266H9.58594V19.6787L9.48535 19.6777L6.9668 19.6562C4.89493 19.6419 4.48855 19.6325 4.15332 19.5537L4.00977 19.5156C1.77191 18.8798 0.259976 16.9817 0.109375 14.6357V14.6348C0.0341591 13.4185 0.420635 12.0873 1.1416 11.0996L1.27539 10.9248C1.97127 10.0583 3.06638 9.33388 4.03223 9.12305V9.12207C4.12113 9.10309 4.18801 9.08723 4.23828 9.07031C4.28841 9.05342 4.31587 9.03772 4.33203 9.02441C4.35461 9.00569 4.37012 8.97948 4.37012 8.875C4.3702 8.68269 4.42783 8.31498 4.50879 7.92188C4.59043 7.52549 4.69839 7.092 4.80273 6.76465L4.9375 6.37402C5.64861 4.44274 6.9249 2.80651 8.5957 1.67578L8.82617 1.52539C9.98776 0.792421 11.3335 0.325323 12.748 0.154297C13.9515 0.0101519 15.3284 0.159484 16.54 0.563477C19.2088 1.44353 21.3587 3.50724 22.3936 6.17285C22.5158 6.48699 22.654 6.90083 22.708 7.09668L22.709 7.09863L22.7852 7.39062L23.1621 7.52148C24.0905 7.8387 24.8699 8.33486 25.5566 9.04688C26.4154 9.93732 26.9624 11.0005 27.2246 12.2988H27.2236C27.2466 12.3988 27.265 12.5735 27.2773 12.7695C27.29 12.9698 27.2971 13.2 27.2998 13.4121V13.4141Z" fill="#515151" stroke="#515151" stroke-width="0.2"/>
</svg>
