<svg width="27" height="29" viewBox="0 0 27 29" fill="none" xmlns="http://www.w3.org/2000/svg">
<path d="M5.16441 0.21771C4.0566 0.790113 2.70645 1.7649 1.71981 2.70568C1.02166 3.36309 0.923571 3.50477 0.923571 3.84481C0.923571 4.42288 1.4544 4.8366 2.04869 4.72892C2.19871 4.70058 2.41796 4.5419 2.86224 4.14518C3.73349 3.35742 4.48357 2.78502 5.25673 2.30896C5.63177 2.0766 6.0645 1.81024 6.21452 1.71956C6.50878 1.5382 6.75112 1.16983 6.75112 0.897792C6.75112 0.620092 6.50878 0.257382 6.23183 0.115698C5.86833 -0.0599899 5.66638 -0.0429879 5.16441 0.21771Z" fill="black"/>
<path d="M20.7891 0.0986586C20.3794 0.285681 20.1775 0.744736 20.3102 1.16412C20.4083 1.46449 20.5525 1.59484 21.0891 1.90088C22.1508 2.50161 23.0682 3.17603 24.1471 4.14515C24.7876 4.72322 24.9491 4.80256 25.3703 4.72322C25.6531 4.67221 25.9992 4.33217 26.0512 4.05447C26.1319 3.63508 26.0512 3.4594 25.5146 2.921C24.6433 2.04256 23.2759 1.02244 22.0007 0.302683C21.4353 -0.0146883 21.1468 -0.0656945 20.7891 0.0986586Z" fill="black"/>
<path d="M12.4633 1.80451C6.43383 2.29757 1.4833 6.59342 0.254327 12.3968C-0.109173 14.114 -0.0803242 16.2279 0.323565 17.9848C0.8717 20.3821 2.25646 22.802 4.04512 24.5022C4.34515 24.7856 4.69711 25.1086 4.82981 25.2163L5.07215 25.4147L4.32784 26.5312C3.91818 27.1489 3.55468 27.744 3.52006 27.8516C3.38735 28.2427 3.5893 28.6961 3.97588 28.8944C4.27014 29.0361 4.51247 29.0361 4.82404 28.8888C5.0433 28.7868 5.1587 28.6451 5.83377 27.6249L6.58962 26.4745L7.40894 26.8769C9.42261 27.8686 11.2459 28.2937 13.5019 28.2937C15.7637 28.2937 17.5812 27.8743 19.6006 26.8769L20.4142 26.4745L21.1758 27.6249C21.8451 28.6451 21.9547 28.7868 22.1797 28.8888C22.4913 29.0361 22.6875 29.0361 22.9991 28.8888C23.4491 28.6791 23.6337 28.186 23.4376 27.7553C23.3799 27.6193 23.0164 27.0355 22.6298 26.4575L21.9316 25.4147L22.174 25.2163C24.505 23.2951 26.1782 20.5181 26.7668 17.5881C27.0495 16.1712 27.0783 14.267 26.836 12.8842C25.8321 7.11481 21.2104 2.69995 15.3194 1.88952C14.5751 1.78751 13.1672 1.74217 12.4633 1.80451ZM15.0194 3.70307C17.1138 3.9751 19.1737 4.84221 20.8296 6.15136C21.3835 6.58775 22.3759 7.60221 22.8029 8.15761C26.5648 13.0825 25.7109 20.0137 20.8584 23.9072C17.1196 26.9052 11.7536 27.3189 7.6455 24.9273C4.13743 22.8757 2.0199 19.4073 1.86411 15.4345C1.63332 9.55744 6.08764 4.43982 12.0941 3.6804C12.7518 3.60106 14.3039 3.61239 15.0194 3.70307Z" fill="black"/>
<path d="M13.1267 6.42341C13.0344 6.47442 12.9075 6.55943 12.844 6.61043C12.5786 6.8428 12.5786 6.83146 12.5786 11.1613C12.5786 14.7941 12.5901 15.2701 12.6709 15.4402C12.769 15.6385 16.4559 18.8576 16.8079 19.0446C17.558 19.4526 18.4292 18.6592 18.0715 17.8941C17.9792 17.6901 17.6272 17.3614 16.1963 16.1429L14.4307 14.6411V10.8553C14.4249 7.75524 14.4076 7.03549 14.3442 6.88247C14.1653 6.45742 13.5248 6.21372 13.1267 6.42341Z" fill="black"/>
</svg>
