<svg width="29" height="24" viewBox="0 0 29 24" fill="none" xmlns="http://www.w3.org/2000/svg">
<path fill-rule="evenodd" clip-rule="evenodd" d="M1.9936 10.3318C9.77821 6.94489 14.9692 4.712 17.5665 3.63318C24.9823 0.552929 26.5233 0.0178568 27.5276 0.000188385C27.7485 -0.00369759 28.2425 0.0509728 28.5624 0.310224C28.8326 0.529131 28.9069 0.824843 28.9425 1.03239C28.978 1.23994 29.0223 1.71274 28.9871 2.08217C28.5852 6.2988 26.8464 16.5315 25.9617 21.2541C25.5874 23.2525 24.8503 23.9225 24.1368 23.9881C22.5861 24.1306 21.4085 22.9647 19.9066 21.9815C17.5563 20.443 16.2286 19.4853 13.9472 17.984C11.3108 16.249 13.0199 15.2954 14.5224 13.737C14.9156 13.3291 21.7481 7.12301 21.8804 6.56002C21.8969 6.48961 21.9123 6.22715 21.7561 6.08856C21.6 5.94997 21.3695 5.99736 21.2032 6.03505C20.9675 6.08848 17.213 8.56668 9.93955 13.4697C8.87383 14.2005 7.90854 14.5565 7.04366 14.5379C6.09021 14.5173 4.25615 13.9995 2.89272 13.5569C1.22041 13.0141 -0.108711 12.7271 0.00702552 11.8051C0.0673081 11.3249 0.729499 10.8338 1.9936 10.3318Z" fill="#0AFF1B"/>
</svg>
