<svg width="24" height="22" viewBox="0 0 24 22" fill="none" xmlns="http://www.w3.org/2000/svg">
<path d="M20.4591 14.8L23.8664 8.80003H17.0517L20.4591 14.8Z" fill="black"/>
<path d="M10.8197 0C16.7952 0 21.6393 4.92488 21.6393 11C21.6393 11.5809 21.5945 12.1512 21.5091 12.7078L20.026 11.2L19.6533 11.5785C19.6652 11.3872 19.6721 11.1944 19.6721 11C19.6721 6.02944 15.7087 2 10.8197 2C5.9306 2 1.96721 6.02944 1.96721 11C1.96721 15.9706 5.9306 20 10.8197 20C13.5749 20 16.036 18.7203 17.6596 16.7137L19.0554 18.1328C17.0709 20.499 14.118 22 10.8197 22C4.84414 22 0 17.0751 0 11C0 4.92488 4.84414 0 10.8197 0Z" fill="black"/>
<path d="M14.5909 6.05677V7.43441L10.4957 17.2001H7.81578L11.9185 8.04665H6.6866V6.05677H14.5909Z" fill="black"/>
</svg>
